<svg version="1.1" viewBox="0.0 0.0 600.0 371.0" fill="none" stroke="none" stroke-linecap="square" stroke-miterlimit="10" width="600" height="371" xmlns:xlink="http://www.w3.org/1999/xlink" xmlns="http://www.w3.org/2000/svg"><path fill="#ffffff" d="M0 0L600.0 0L600.0 371.0L0 371.0L0 0Z" fill-rule="nonzero"/><path stroke="#cccccc" stroke-width="1.0" stroke-linecap="butt" d="M177.5 85.5L177.5 300.5" fill-rule="nonzero"/><path stroke="#cccccc" stroke-width="1.0" stroke-linecap="butt" d="M275.5 85.5L275.5 300.5" fill-rule="nonzero"/><path stroke="#cccccc" stroke-width="1.0" stroke-linecap="butt" d="M373.5 85.5L373.5 300.5" fill-rule="nonzero"/><path stroke="#cccccc" stroke-width="1.0" stroke-linecap="butt" d="M471.5 85.5L471.5 300.5" fill-rule="nonzero"/><path stroke="#cccccc" stroke-width="1.0" stroke-linecap="butt" d="M569.5 85.5L569.5 300.5" fill-rule="nonzero"/><path stroke="#cccccc" stroke-width="1.0" stroke-linecap="butt" d="M83.5 300.5L581.5 300.5" fill-rule="nonzero"/><path stroke="#cccccc" stroke-width="1.0" stroke-linecap="butt" d="M83.5 260.5L581.5 260.5" fill-rule="nonzero"/><path stroke="#cccccc" stroke-width="1.0" stroke-linecap="butt" d="M83.5 219.5L581.5 219.5" fill-rule="nonzero"/><path stroke="#cccccc" stroke-width="1.0" stroke-linecap="butt" d="M83.5 196.5L581.5 196.5" fill-rule="nonzero"/><path stroke="#cccccc" stroke-width="1.0" stroke-linecap="butt" d="M83.5 179.5L581.5 179.5" fill-rule="nonzero"/><path stroke="#cccccc" stroke-width="1.0" stroke-linecap="butt" d="M83.5 166.5L581.5 166.5" fill-rule="nonzero"/><path stroke="#cccccc" stroke-width="1.0" stroke-linecap="butt" d="M83.5 125.5L581.5 125.5" fill-rule="nonzero"/><path stroke="#cccccc" stroke-width="1.0" stroke-linecap="butt" d="M83.5 85.5L581.5 85.5" fill-rule="nonzero"/><path stroke="#000000" stroke-width="1.0" stroke-linecap="butt" d="M83.5 300.5L83.5 85.5" fill-rule="nonzero"/><clipPath id="id_0"><path d="M83.55 85.416664L581.45 85.416664L581.45 300.45L83.55 300.45L83.55 85.416664Z" clip-rule="nonzero"/></clipPath><path stroke="#4285f4" stroke-width="2.0" stroke-linecap="butt" clip-path="url(#id_0)" d="M83.55 72.40911L95.31142 150.93315L110.99331 187.01839L142.35709 219.6397L205.08464 236.40935L330.53976 236.40935L581.45 260.04483" fill-rule="nonzero"/><path fill="#000000" fill-opacity="0.0" clip-path="url(#id_0)" d="M86.55 72.40911C86.55 74.06596 85.206856 75.40911 83.55 75.40911C81.89314 75.40911 80.55 74.06596 80.55 72.40911C80.55 70.75226 81.89314 69.40911 83.55 69.40911C85.206856 69.40911 86.55 70.75226 86.55 72.40911Z" fill-rule="nonzero"/><path fill="#000000" fill-opacity="0.0" clip-path="url(#id_0)" d="M98.31142 150.93315C98.31142 152.59001 96.96827 153.93315 95.31142 153.93315C93.654564 153.93315 92.31142 152.59001 92.31142 150.93315C92.31142 149.2763 93.654564 147.93315 95.31142 147.93315C96.96827 147.93315 98.31142 149.2763 98.31142 150.93315Z" fill-rule="nonzero"/><path fill="#000000" fill-opacity="0.0" clip-path="url(#id_0)" d="M113.99331 187.01839C113.99331 188.67525 112.65016 190.01839 110.99331 190.01839C109.33646 190.01839 107.99331 188.67525 107.99331 187.01839C107.99331 185.36153 109.33646 184.01839 110.99331 184.01839C112.65016 184.01839 113.99331 185.36153 113.99331 187.01839Z" fill-rule="nonzero"/><path fill="#000000" fill-opacity="0.0" clip-path="url(#id_0)" d="M145.35709 219.6397C145.35709 221.29654 144.01395 222.6397 142.35709 222.6397C140.70023 222.6397 139.35709 221.29654 139.35709 219.6397C139.35709 217.98283 140.70023 216.6397 142.35709 216.6397C144.01395 216.6397 145.35709 217.98283 145.35709 219.6397Z" fill-rule="nonzero"/><path fill="#000000" fill-opacity="0.0" clip-path="url(#id_0)" d="M208.08464 236.40935C208.08464 238.0662 206.7415 239.40935 205.08464 239.40935C203.4278 239.40935 202.08464 238.0662 202.08464 236.40935C202.08464 234.75249 203.4278 233.40935 205.08464 233.40935C206.7415 233.40935 208.08464 234.75249 208.08464 236.40935Z" fill-rule="nonzero"/><path fill="#000000" fill-opacity="0.0" clip-path="url(#id_0)" d="M333.53976 236.40935C333.53976 238.0662 332.19662 239.40935 330.53976 239.40935C328.8829 239.40935 327.53976 238.0662 327.53976 236.40935C327.53976 234.75249 328.8829 233.40935 330.53976 233.40935C332.19662 233.40935 333.53976 234.75249 333.53976 236.40935Z" fill-rule="nonzero"/><path fill="#000000" fill-opacity="0.0" clip-path="url(#id_0)" d="M584.45 260.04483C584.45 261.7017 583.1069 263.04483 581.45 263.04483C579.79315 263.04483 578.45 261.7017 578.45 260.04483C578.45 258.388 579.79315 257.04483 581.45 257.04483C583.1069 257.04483 584.45 258.388 584.45 260.04483Z" fill-rule="nonzero"/><path fill="#000000" d="M314.59375 348.5125L314.75 349.4344Q314.29688 349.52814 313.95312 349.52814Q313.375 349.52814 313.0625 349.35626Q312.75 349.16876 312.60938 348.8719Q312.48438 348.575 312.48438 347.6219L312.48438 344.04376L311.71875 344.04376L311.71875 343.23126L312.48438 343.23126L312.48438 341.6844L313.53125 341.0594L313.53125 343.23126L314.59375 343.23126L314.59375 344.04376L313.53125 344.04376L313.53125 347.6844Q313.53125 348.1375 313.57812 348.2625Q313.64062 348.3875 313.76562 348.46564Q313.89062 348.54376 314.125 348.54376Q314.3125 348.54376 314.59375 348.5125ZM315.29688 349.45L315.29688 340.85626L316.34375 340.85626L316.34375 343.9344Q317.07812 343.09064 318.20312 343.09064Q318.90625 343.09064 319.40625 343.3719Q319.92188 343.6375 320.14062 344.1219Q320.35938 344.59064 320.35938 345.5125L320.35938 349.45L319.3125 349.45L319.3125 345.5125Q319.3125 344.71564 318.96875 344.35626Q318.625 343.9969 318.0 343.9969Q317.53125 343.9969 317.10938 344.2469Q316.70312 344.48126 316.51562 344.90314Q316.34375 345.3094 316.34375 346.04376L316.34375 349.45L315.29688 349.45ZM322.28125 349.45L322.28125 343.23126L323.23438 343.23126L323.23438 344.16876Q323.59375 343.5125 323.89062 343.3094Q324.20312 343.09064 324.57812 343.09064Q325.10938 343.09064 325.65625 343.41876L325.29688 344.40314Q324.90625 344.16876 324.53125 344.16876Q324.17188 344.16876 323.89062 344.3875Q323.625 344.59064 323.51562 344.96564Q323.32812 345.52814 323.32812 346.1844L323.32812 349.45L322.28125 349.45ZM330.54688 347.45L331.64062 347.575Q331.39062 348.52814 330.6875 349.0594Q329.98438 349.59064 328.90625 349.59064Q327.54688 349.59064 326.73438 348.7469Q325.9375 347.90314 325.9375 346.3875Q325.9375 344.825 326.75 343.96564Q327.5625 343.09064 328.84375 343.09064Q330.09375 343.09064 330.875 343.9344Q331.67188 344.77814 331.67188 346.325Q331.67188 346.41876 331.67188 346.60626L327.03125 346.60626Q327.09375 347.6375 327.60938 348.1844Q328.125 348.71564 328.90625 348.71564Q329.48438 348.71564 329.89062 348.41876Q330.3125 348.10626 330.54688 347.45ZM327.09375 345.7469L330.5625 345.7469Q330.5 344.95 330.17188 344.5594Q329.65625 343.95 328.85938 343.95Q328.125 343.95 327.625 344.4344Q327.14062 344.91876 327.09375 345.7469ZM337.35938 348.6844Q336.76562 349.1844 336.21875 349.3875Q335.6875 349.59064 335.0625 349.59064Q334.03125 349.59064 333.48438 349.09064Q332.9375 348.59064 332.9375 347.8094Q332.9375 347.35626 333.14062 346.98126Q333.34375 346.59064 333.6875 346.3719Q334.03125 346.1375 334.45312 346.02814Q334.75 345.9344 335.39062 345.85626Q336.65625 345.71564 337.26562 345.4969Q337.26562 345.27814 337.26562 345.23126Q337.26562 344.575 336.96875 344.3094Q336.5625 343.96564 335.76562 343.96564Q335.03125 343.96564 334.67188 344.23126Q334.3125 344.48126 334.14062 345.1375L333.10938 344.9969Q333.25 344.34064 333.57812 343.9344Q333.90625 343.52814 334.51562 343.3094Q335.125 343.09064 335.92188 343.09064Q336.71875 343.09064 337.21875 343.27814Q337.71875 343.46564 337.95312 343.7469Q338.1875 344.02814 338.28125 344.46564Q338.32812 344.73126 338.32812 345.4344L338.32812 346.84064Q338.32812 348.3094 338.39062 348.7Q338.46875 349.09064 338.67188 349.45L337.5625 349.45Q337.40625 349.1219 337.35938 348.6844ZM337.26562 346.325Q336.6875 346.5594 335.54688 346.73126Q334.89062 346.825 334.625 346.95Q334.35938 347.0594 334.20312 347.27814Q334.0625 347.4969 334.0625 347.77814Q334.0625 348.2 334.375 348.48126Q334.70312 348.7625 335.3125 348.7625Q335.92188 348.7625 336.39062 348.4969Q336.875 348.23126 337.09375 347.7625Q337.26562 347.40314 337.26562 346.71564L337.26562 346.325ZM344.32812 349.45L344.32812 348.66876Q343.73438 349.59064 342.59375 349.59064Q341.84375 349.59064 341.21875 349.1844Q340.59375 348.7625 340.25 348.02814Q339.90625 347.29376 339.90625 346.34064Q339.90625 345.41876 340.21875 344.65314Q340.53125 343.8875 341.15625 343.4969Q341.78125 343.09064 342.54688 343.09064Q343.10938 343.09064 343.54688 343.325Q343.98438 343.5594 344.26562 343.9344L344.26562 340.85626L345.3125 340.85626L345.3125 349.45L344.32812 349.45ZM341.0 346.34064Q341.0 347.54376 341.5 348.1375Q342.0 348.71564 342.6875 348.71564Q343.375 348.71564 343.85938 348.15314Q344.34375 347.59064 344.34375 346.4344Q344.34375 345.15314 343.84375 344.5594Q343.35938 343.96564 342.64062 343.96564Q341.9375 343.96564 341.46875 344.54376Q341.0 345.10626 341.0 346.34064ZM346.875 347.59064L347.90625 347.4344Q348.0 348.0594 348.39062 348.3875Q348.79688 348.71564 349.53125 348.71564Q350.25 348.71564 350.59375 348.4344Q350.95312 348.1375 350.95312 347.73126Q350.95312 347.3719 350.64062 347.16876Q350.42188 347.02814 349.5625 346.8094Q348.40625 346.5125 347.95312 346.3094Q347.51562 346.09064 347.28125 345.71564Q347.04688 345.34064 347.04688 344.8719Q347.04688 344.46564 347.23438 344.10626Q347.42188 343.7469 347.75 343.5125Q348.0 343.34064 348.42188 343.21564Q348.84375 343.09064 349.34375 343.09064Q350.0625 343.09064 350.60938 343.3094Q351.17188 343.5125 351.4375 343.8719Q351.70312 344.23126 351.79688 344.825L350.76562 344.96564Q350.70312 344.4969 350.35938 344.23126Q350.03125 343.95 349.40625 343.95Q348.6875 343.95 348.375 344.2Q348.0625 344.4344 348.0625 344.7625Q348.0625 344.96564 348.1875 345.1219Q348.32812 345.29376 348.59375 345.40314Q348.75 345.46564 349.53125 345.66876Q350.65625 345.98126 351.09375 346.16876Q351.53125 346.35626 351.78125 346.71564Q352.03125 347.075 352.03125 347.6219Q352.03125 348.15314 351.71875 348.6219Q351.42188 349.075 350.84375 349.34064Q350.26562 349.59064 349.53125 349.59064Q348.3125 349.59064 347.67188 349.09064Q347.04688 348.575 346.875 347.59064Z" fill-rule="nonzero"/><path fill="#000000" d="M29.550013 227.66771L20.956263 227.66771L20.956263 226.60521L29.550013 226.60521L29.550013 227.66771ZM28.784388 220.57396Q29.284388 221.16771 29.487513 221.71458Q29.690638 222.24583 29.690638 222.87083Q29.690638 223.90208 29.190638 224.44896Q28.690638 224.99583 27.909388 224.99583Q27.456263 224.99583 27.081263 224.79271Q26.690638 224.58958 26.471888 224.24583Q26.237513 223.90208 26.128138 223.48021Q26.034388 223.18333 25.956263 222.54271Q25.815638 221.27708 25.596888 220.66771Q25.378138 220.66771 25.331263 220.66771Q24.675013 220.66771 24.409388 220.96458Q24.065638 221.37083 24.065638 222.16771Q24.065638 222.90208 24.331263 223.26146Q24.581263 223.62083 25.237513 223.79271L25.096888 224.82396Q24.440638 224.68333 24.034388 224.35521Q23.628138 224.02708 23.409388 223.41771Q23.190638 222.80833 23.190638 222.01146Q23.190638 221.21458 23.378138 220.71458Q23.565638 220.21458 23.846888 219.98021Q24.128138 219.74583 24.565638 219.65208Q24.831263 219.60521 25.534388 219.60521L26.940638 219.60521Q28.409388 219.60521 28.800013 219.54271Q29.190638 219.46458 29.550013 219.26146L29.550013 220.37083Q29.221888 220.52708 28.784388 220.57396ZM26.425013 220.66771Q26.659388 221.24583 26.831263 222.38646Q26.925013 223.04271 27.050013 223.30833Q27.159388 223.57396 27.378138 223.73021Q27.596888 223.87083 27.878138 223.87083Q28.300013 223.87083 28.581263 223.55833Q28.862513 223.23021 28.862513 222.62083Q28.862513 222.01146 28.596888 221.54271Q28.331263 221.05833 27.862513 220.83958Q27.503138 220.66771 26.815638 220.66771L26.425013 220.66771ZM28.612513 215.33958L29.534388 215.18333Q29.628138 215.63646 29.628138 215.98021Q29.628138 216.55833 29.456263 216.87083Q29.268763 217.18333 28.971888 217.32396Q28.675013 217.44896 27.721888 217.44896L24.143763 217.44896L24.143763 218.21458L23.331263 218.21458L23.331263 217.44896L21.784388 217.44896L21.159388 216.40208L23.331263 216.40208L23.331263 215.33958L24.143763 215.33958L24.143763 216.40208L27.784388 216.40208Q28.237513 216.40208 28.362513 216.35521Q28.487513 216.29271 28.565638 216.16771Q28.643763 216.04271 28.643763 215.80833Q28.643763 215.62083 28.612513 215.33958ZM27.550013 210.38646L27.675013 209.29271Q28.628138 209.54271 29.159388 210.24583Q29.690638 210.94896 29.690638 212.02708Q29.690638 213.38646 28.846888 214.19896Q28.003138 214.99583 26.487513 214.99583Q24.925013 214.99583 24.065638 214.18333Q23.190638 213.37083 23.190638 212.08958Q23.190638 210.83958 24.034388 210.05833Q24.878138 209.26146 26.425013 209.26146Q26.518763 209.26146 26.706263 209.26146L26.706263 213.90208Q27.737513 213.83958 28.284388 213.32396Q28.815638 212.80833 28.815638 212.02708Q28.815638 211.44896 28.518763 211.04271Q28.206263 210.62083 27.550013 210.38646ZM25.846888 213.83958L25.846888 210.37083Q25.050013 210.43333 24.659388 210.76146Q24.050013 211.27708 24.050013 212.07396Q24.050013 212.80833 24.534388 213.30833Q25.018763 213.79271 25.846888 213.83958ZM29.550013 207.63646L23.331263 207.63646L23.331263 206.69896L24.206263 206.69896Q23.190638 206.01146 23.190638 204.71458Q23.190638 204.15208 23.393763 203.68333Q23.596888 203.19896 23.925013 202.96458Q24.253138 202.73021 24.690638 202.63646Q24.987513 202.58958 25.721888 202.58958L29.550013 202.58958L29.550013 203.63646L25.768763 203.63646Q25.112513 203.63646 24.800013 203.76146Q24.487513 203.88646 24.300013 204.19896Q24.096888 204.51146 24.096888 204.93333Q24.096888 205.60521 24.534388 206.10521Q24.956263 206.58958 26.143763 206.58958L29.550013 206.58958L29.550013 207.63646ZM27.268763 196.57396L27.409388 195.54271Q28.471888 195.71458 29.081263 196.41771Q29.690638 197.12083 29.690638 198.13646Q29.690638 199.41771 28.862513 200.19896Q28.018763 200.96458 26.456263 200.96458Q25.456263 200.96458 24.706263 200.63646Q23.940638 200.29271 23.565638 199.62083Q23.190638 198.93333 23.190638 198.12083Q23.190638 197.12083 23.706263 196.48021Q24.206263 195.82396 25.159388 195.63646L25.315638 196.66771Q24.690638 196.80833 24.378138 197.18333Q24.050013 197.55833 24.050013 198.08958Q24.050013 198.88646 24.628138 199.38646Q25.190638 199.88646 26.425013 199.88646Q27.690638 199.88646 28.253138 199.40208Q28.815638 198.91771 28.815638 198.15208Q28.815638 197.52708 28.440638 197.12083Q28.065638 196.69896 27.268763 196.57396ZM31.940638 194.68333L30.956263 194.80833Q31.050013 194.46458 31.050013 194.19896Q31.050013 193.85521 30.925013 193.65208Q30.815638 193.43333 30.612513 193.29271Q30.440638 193.19896 29.815638 192.96458Q29.737513 192.94896 29.565638 192.87083L23.331263 195.24583L23.331263 194.10521L26.925013 192.80833Q27.612513 192.55833 28.378138 192.35521Q27.643763 192.16771 26.956263 191.91771L23.331263 190.58958L23.331263 189.54271L29.659388 191.90208Q30.675013 192.29271 31.065638 192.49583Q31.596888 192.77708 31.831263 193.15208Q32.08126 193.51146 32.08126 194.01146Q32.08126 194.30833 31.940638 194.68333ZM29.550013 189.37083L28.346888 189.37083L28.346888 188.16771L29.550013 188.16771Q30.206263 188.16771 30.612513 188.40208Q31.034388 188.63646 31.253138 189.13646L30.800013 189.43333Q30.659388 189.10521 30.362513 188.94896Q30.081263 188.79271 29.550013 188.76146L29.550013 189.37083ZM29.550013 183.63646L23.331263 183.63646L23.331263 182.69896L24.206263 182.69896Q23.190638 182.01146 23.190638 180.71458Q23.190638 180.15208 23.393763 179.68333Q23.596888 179.19896 23.925013 178.96458Q24.253138 178.73021 24.690638 178.63646Q24.987513 178.58958 25.721888 178.58958L29.550013 178.58958L29.550013 179.63646L25.768763 179.63646Q25.112513 179.63646 24.800013 179.76146Q24.487513 179.88646 24.300013 180.19896Q24.096888 180.51146 24.096888 180.93333Q24.096888 181.60521 24.534388 182.10521Q24.956263 182.58958 26.143763 182.58958L29.550013 182.58958L29.550013 183.63646ZM27.690638 177.05833L27.534388 176.02708Q28.159388 175.93333 28.487513 175.54271Q28.815638 175.13646 28.815638 174.40208Q28.815638 173.68333 28.534388 173.33958Q28.237513 172.98021 27.831263 172.98021Q27.471888 172.98021 27.268763 173.29271Q27.128138 173.51146 26.909388 174.37083Q26.612513 175.52708 26.409388 175.98021Q26.190638 176.41771 25.815638 176.65208Q25.440638 176.88646 24.971888 176.88646Q24.565638 176.88646 24.206263 176.69896Q23.846888 176.51146 23.612513 176.18333Q23.440638 175.93333 23.315638 175.51146Q23.190638 175.08958 23.190638 174.58958Q23.190638 173.87083 23.409388 173.32396Q23.612513 172.76146 23.971888 172.49583Q24.331263 172.23021 24.925013 172.13646L25.065638 173.16771Q24.596888 173.23021 24.331263 173.57396Q24.050013 173.90208 24.050013 174.52708Q24.050013 175.24583 24.300013 175.55833Q24.534388 175.87083 24.862513 175.87083Q25.065638 175.87083 25.221888 175.74583Q25.393763 175.60521 25.503138 175.33958Q25.565638 175.18333 25.768763 174.40208Q26.081263 173.27708 26.268763 172.83958Q26.456263 172.40208 26.815638 172.15208Q27.175013 171.90208 27.721888 171.90208Q28.253138 171.90208 28.721888 172.21458Q29.175013 172.51146 29.440638 173.08958Q29.690638 173.66771 29.690638 174.40208Q29.690638 175.62083 29.190638 176.26146Q28.675013 176.88646 27.690638 177.05833Z" fill-rule="nonzero"/><path fill="#000000" d="M69.01875 304.45L67.97188 304.45L67.97188 297.73126Q67.58125 298.09064 66.95625 298.46564Q66.34688 298.825 65.8625 298.9969L65.8625 297.98126Q66.7375 297.5594 67.39375 296.98126Q68.06563 296.3875 68.34688 295.825L69.01875 295.825L69.01875 304.45Z" fill-rule="nonzero"/><path fill="#000000" d="M70.59688 263.0292L70.59688 264.04483L64.90938 264.04483Q64.90938 263.66983 65.03438 263.31046Q65.25313 262.73233 65.72188 262.16983Q66.20625 261.60733 67.1125 260.87296Q68.51875 259.7167 69.00313 259.04483Q69.50313 258.37296 69.50313 257.7792Q69.50313 257.1542 69.05 256.73233Q68.59688 256.29483 67.87813 256.29483Q67.1125 256.29483 66.65938 256.74796Q66.20625 257.20108 66.19063 258.01358L65.1125 257.9042Q65.22188 256.68546 65.94063 256.06046Q66.675 255.41983 67.90938 255.41983Q69.14375 255.41983 69.8625 256.10733Q70.58125 256.79483 70.58125 257.81046Q70.58125 258.32608 70.3625 258.82608Q70.15938 259.31046 69.65938 259.87296Q69.175 260.41983 68.05 261.37296Q67.09688 262.16983 66.81563 262.4667Q66.55 262.74796 66.37813 263.0292L70.59688 263.0292Z" fill-rule="nonzero"/><path fill="#000000" d="M68.425 223.6397L68.425 221.5772L64.70625 221.5772L64.70625 220.60844L68.62813 215.04594L69.4875 215.04594L69.4875 220.60844L70.64375 220.60844L70.64375 221.5772L69.4875 221.5772L69.4875 223.6397L68.425 223.6397ZM68.425 220.60844L68.425 216.74907L65.7375 220.60844L68.425 220.60844Z" fill-rule="nonzero"/><path fill="#000000" d="M70.51875 193.5198L69.47188 193.59793Q69.33125 192.97293 69.08125 192.69168Q68.64375 192.23856 68.01875 192.23856Q67.51875 192.23856 67.12813 192.5198Q66.64375 192.8948 66.34688 193.59793Q66.06563 194.28543 66.05 195.56668Q66.425 194.98856 66.97188 194.7073Q67.53438 194.42606 68.14375 194.42606Q69.19063 194.42606 69.925 195.2073Q70.675 195.98856 70.675 197.2073Q70.675 198.0198 70.31563 198.72293Q69.97188 199.41043 69.3625 199.78543Q68.75313 200.1448 67.9875 200.1448Q66.65938 200.1448 65.83125 199.17606Q65.00313 198.2073 65.00313 195.98856Q65.00313 193.48856 65.925 192.36356Q66.72188 191.37918 68.08125 191.37918Q69.09688 191.37918 69.7375 191.9573Q70.39375 192.5198 70.51875 193.5198ZM66.22188 197.22293Q66.22188 197.7698 66.44063 198.2698Q66.675 198.75418 67.08125 199.0198Q67.50313 199.28543 67.97188 199.28543Q68.62813 199.28543 69.1125 198.75418Q69.59688 198.2073 69.59688 197.28543Q69.59688 196.3948 69.1125 195.87918Q68.64375 195.36356 67.925 195.36356Q67.20625 195.36356 66.70625 195.87918Q66.22188 196.3948 66.22188 197.22293Z" fill-rule="nonzero"/><path fill="#000000" d="M66.675 178.57828Q66.01875 178.32828 65.69063 177.89078Q65.37813 177.43765 65.37813 176.82828Q65.37813 175.89078 66.05 175.25015Q66.7375 174.60953 67.84688 174.60953Q68.97188 174.60953 69.65938 175.26578Q70.34688 175.92203 70.34688 176.85953Q70.34688 177.45328 70.03438 177.89078Q69.72188 178.32828 69.08125 178.57828Q69.87813 178.82828 70.28438 179.4064Q70.69063 179.98453 70.69063 180.7814Q70.69063 181.87515 69.90938 182.62515Q69.14375 183.37515 67.8625 183.37515Q66.59688 183.37515 65.81563 182.62515Q65.03438 181.87515 65.03438 180.75015Q65.03438 179.9064 65.45625 179.3439Q65.89375 178.7814 66.675 178.57828ZM66.45625 176.7814Q66.45625 177.39078 66.84688 177.7814Q67.25313 178.17203 67.87813 178.17203Q68.4875 178.17203 68.87813 177.79703Q69.26875 177.4064 69.26875 176.8439Q69.26875 176.26578 68.8625 175.87515Q68.45625 175.4689 67.8625 175.4689Q67.25313 175.4689 66.84688 175.85953Q66.45625 176.25015 66.45625 176.7814ZM66.12813 180.75015Q66.12813 181.20328 66.33125 181.62515Q66.55 182.04703 66.97188 182.2814Q67.39375 182.51578 67.87813 182.51578Q68.62813 182.51578 69.1125 182.0314Q69.6125 181.54703 69.6125 180.79703Q69.6125 180.0314 69.1125 179.5314Q68.6125 179.0314 67.84688 179.0314Q67.09688 179.0314 66.6125 179.5314Q66.12813 180.01578 66.12813 180.75015Z" fill-rule="nonzero"/><path fill="#000000" d="M63.596874 128.8062L63.596874 129.82182L57.909374 129.82182Q57.909374 129.44682 58.034374 129.08745Q58.253124 128.50932 58.721874 127.94682Q59.20625 127.38432 60.1125 126.64995Q61.51875 125.4937 62.003124 124.82182Q62.503124 124.14995 62.503124 123.5562Q62.503124 122.9312 62.05 122.50932Q61.596874 122.07182 60.878124 122.07182Q60.1125 122.07182 59.659374 122.52495Q59.20625 122.97807 59.190624 123.79057L58.1125 123.6812Q58.221874 122.46245 58.940624 121.83745Q59.675 121.19682 60.909374 121.19682Q62.14375 121.19682 62.8625 121.88432Q63.58125 122.57182 63.58125 123.58745Q63.58125 124.10307 63.3625 124.60307Q63.159374 125.08745 62.659374 125.64995Q62.175 126.19682 61.05 127.14995Q60.096874 127.94682 59.815624 128.2437Q59.55 128.52495 59.378124 128.8062L63.596874 128.8062ZM65.05 125.58745Q65.05 124.0562 65.3625 123.13432Q65.675 122.19682 66.28438 121.69682Q66.90938 121.19682 67.84688 121.19682Q68.53438 121.19682 69.05 121.47807Q69.58125 121.75932 69.925 122.29057Q70.26875 122.8062 70.45625 123.5562Q70.64375 124.3062 70.64375 125.58745Q70.64375 127.10307 70.33125 128.02495Q70.03438 128.94682 69.40938 129.46245Q68.8 129.96245 67.84688 129.96245Q66.6125 129.96245 65.89375 129.07182Q65.05 128.00932 65.05 125.58745ZM66.12813 125.58745Q66.12813 127.69682 66.62813 128.39995Q67.12813 129.10307 67.84688 129.10307Q68.58125 129.10307 69.06563 128.39995Q69.56563 127.69682 69.56563 125.58745Q69.56563 123.46245 69.06563 122.77495Q68.58125 122.07182 67.83125 122.07182Q67.1125 122.07182 66.675 122.6812Q66.12813 123.46245 66.12813 125.58745Z" fill-rule="nonzero"/><path fill="#000000" d="M61.425 89.416664L61.425 87.354164L57.70625 87.354164L57.70625 86.385414L61.628124 80.822914L62.4875 80.822914L62.4875 86.385414L63.64375 86.385414L63.64375 87.354164L62.4875 87.354164L62.4875 89.416664L61.425 89.416664ZM61.425 86.385414L61.425 82.52604L58.7375 86.385414L61.425 86.385414ZM65.05 85.18229Q65.05 83.65104 65.3625 82.729164Q65.675 81.791664 66.28438 81.291664Q66.90938 80.791664 67.84688 80.791664Q68.53438 80.791664 69.05 81.072914Q69.58125 81.354164 69.925 81.885414Q70.26875 82.40104 70.45625 83.15104Q70.64375 83.90104 70.64375 85.18229Q70.64375 86.697914 70.33125 87.61979Q70.03438 88.541664 69.40938 89.05729Q68.8 89.55729 67.84688 89.55729Q66.6125 89.55729 65.89375 88.666664Q65.05 87.604164 65.05 85.18229ZM66.12813 85.18229Q66.12813 87.291664 66.62813 87.99479Q67.12813 88.697914 67.84688 88.697914Q68.58125 88.697914 69.06563 87.99479Q69.56563 87.291664 69.56563 85.18229Q69.56563 83.05729 69.06563 82.36979Q68.58125 81.666664 67.83125 81.666664Q67.1125 81.666664 66.675 82.27604Q66.12813 83.05729 66.12813 85.18229Z" fill-rule="nonzero"/><path fill="#000000" d="M176.68822 316.4344L176.68822 317.45L171.00072 317.45Q171.00072 317.075 171.12572 316.71564Q171.34447 316.1375 171.81322 315.575Q172.29759 315.0125 173.20384 314.27814Q174.61009 313.1219 175.09447 312.45Q175.59447 311.77814 175.59447 311.1844Q175.59447 310.5594 175.14134 310.1375Q174.68822 309.7 173.96947 309.7Q173.20384 309.7 172.75072 310.15314Q172.29759 310.60626 172.28197 311.41876L171.20384 311.3094Q171.31322 310.09064 172.03197 309.46564Q172.76634 308.825 174.00072 308.825Q175.23509 308.825 175.95384 309.5125Q176.67259 310.2 176.67259 311.21564Q176.67259 311.73126 176.45384 312.23126Q176.25072 312.71564 175.75072 313.27814Q175.26634 313.825 174.14134 314.77814Q173.18822 315.575 172.90697 315.8719Q172.64134 316.15314 172.46947 316.4344L176.68822 316.4344ZM178.14134 315.2L179.25072 315.10626Q179.37572 315.91876 179.81322 316.325Q180.26634 316.73126 180.90697 316.73126Q181.65697 316.73126 182.18822 316.15314Q182.71947 315.575 182.71947 314.6375Q182.71947 313.73126 182.20384 313.21564Q181.70384 312.6844 180.87572 312.6844Q180.37572 312.6844 179.95384 312.91876Q179.54759 313.15314 179.31322 313.5125L178.32884 313.3875L179.15697 308.98126L183.43822 308.98126L183.43822 309.98126L180.00072 309.98126L179.54759 312.29376Q180.31322 311.7469 181.15697 311.7469Q182.28197 311.7469 183.04759 312.52814Q183.82884 313.3094 183.82884 314.54376Q183.82884 315.7 183.15697 316.5594Q182.32884 317.59064 180.90697 317.59064Q179.73509 317.59064 178.98509 316.9344Q178.25072 316.27814 178.14134 315.2Z" fill-rule="nonzero"/><path fill="#000000" d="M269.15314 315.2L270.2625 315.10626Q270.3875 315.91876 270.825 316.325Q271.27814 316.73126 271.91876 316.73126Q272.66876 316.73126 273.2 316.15314Q273.73126 315.575 273.73126 314.6375Q273.73126 313.73126 273.21564 313.21564Q272.71564 312.6844 271.8875 312.6844Q271.3875 312.6844 270.96564 312.91876Q270.5594 313.15314 270.325 313.5125L269.34064 313.3875L270.16876 308.98126L274.45 308.98126L274.45 309.98126L271.0125 309.98126L270.5594 312.29376Q271.325 311.7469 272.16876 311.7469Q273.29376 311.7469 274.0594 312.52814Q274.84064 313.3094 274.84064 314.54376Q274.84064 315.7 274.16876 316.5594Q273.34064 317.59064 271.91876 317.59064Q270.7469 317.59064 269.9969 316.9344Q269.2625 316.27814 269.15314 315.2ZM276.15314 313.21564Q276.15314 311.6844 276.46564 310.7625Q276.77814 309.825 277.3875 309.325Q278.0125 308.825 278.95 308.825Q279.6375 308.825 280.15314 309.10626Q280.6844 309.3875 281.02814 309.91876Q281.3719 310.4344 281.5594 311.1844Q281.7469 311.9344 281.7469 313.21564Q281.7469 314.73126 281.4344 315.65314Q281.1375 316.575 280.5125 317.09064Q279.90314 317.59064 278.95 317.59064Q277.71564 317.59064 276.9969 316.7Q276.15314 315.6375 276.15314 313.21564ZM277.23126 313.21564Q277.23126 315.325 277.73126 316.02814Q278.23126 316.73126 278.95 316.73126Q279.6844 316.73126 280.16876 316.02814Q280.66876 315.325 280.66876 313.21564Q280.66876 311.09064 280.16876 310.40314Q279.6844 309.7 278.9344 309.7Q278.21564 309.7 277.77814 310.3094Q277.23126 311.09064 277.23126 313.21564Z" fill-rule="nonzero"/><path fill="#000000" d="M367.22745 309.98126L367.22745 308.96564L372.78995 308.96564L372.78995 309.79376Q371.97745 310.66876 371.16495 312.1219Q370.36807 313.5594 369.93057 315.09064Q369.60245 316.16876 369.52432 317.45L368.43057 317.45Q368.4462 316.4344 368.8212 314.9969Q369.21182 313.5594 369.91495 312.23126Q370.6337 310.90314 371.4462 309.98126L367.22745 309.98126ZM374.16495 315.2L375.27432 315.10626Q375.39932 315.91876 375.83682 316.325Q376.28995 316.73126 376.93057 316.73126Q377.68057 316.73126 378.21182 316.15314Q378.74307 315.575 378.74307 314.6375Q378.74307 313.73126 378.22745 313.21564Q377.72745 312.6844 376.89932 312.6844Q376.39932 312.6844 375.97745 312.91876Q375.5712 313.15314 375.33682 313.5125L374.35245 313.3875L375.18057 308.98126L379.46182 308.98126L379.46182 309.98126L376.02432 309.98126L375.5712 312.29376Q376.33682 311.7469 377.18057 311.7469Q378.30557 311.7469 379.0712 312.52814Q379.85245 313.3094 379.85245 314.54376Q379.85245 315.7 379.18057 316.5594Q378.35245 317.59064 376.93057 317.59064Q375.7587 317.59064 375.0087 316.9344Q374.27432 316.27814 374.16495 315.2Z" fill-rule="nonzero"/><path fill="#000000" d="M465.6455 317.45L464.59863 317.45L464.59863 310.73126Q464.208 311.09064 463.583 311.46564Q462.97363 311.825 462.48926 311.9969L462.48926 310.98126Q463.36426 310.5594 464.0205 309.98126Q464.69238 309.3875 464.97363 308.825L465.6455 308.825L465.6455 317.45ZM468.67676 313.21564Q468.67676 311.6844 468.98926 310.7625Q469.30176 309.825 469.91113 309.325Q470.53613 308.825 471.47363 308.825Q472.16113 308.825 472.67676 309.10626Q473.208 309.3875 473.55176 309.91876Q473.8955 310.4344 474.083 311.1844Q474.2705 311.9344 474.2705 313.21564Q474.2705 314.73126 473.958 315.65314Q473.66113 316.575 473.03613 317.09064Q472.42676 317.59064 471.47363 317.59064Q470.23926 317.59064 469.5205 316.7Q468.67676 315.6375 468.67676 313.21564ZM469.75488 313.21564Q469.75488 315.325 470.25488 316.02814Q470.75488 316.73126 471.47363 316.73126Q472.208 316.73126 472.69238 316.02814Q473.19238 315.325 473.19238 313.21564Q473.19238 311.09064 472.69238 310.40314Q472.208 309.7 471.458 309.7Q470.73926 309.7 470.30176 310.3094Q469.75488 311.09064 469.75488 313.21564ZM475.67676 313.21564Q475.67676 311.6844 475.98926 310.7625Q476.30176 309.825 476.91113 309.325Q477.53613 308.825 478.47363 308.825Q479.16113 308.825 479.67676 309.10626Q480.208 309.3875 480.55176 309.91876Q480.8955 310.4344 481.083 311.1844Q481.2705 311.9344 481.2705 313.21564Q481.2705 314.73126 480.958 315.65314Q480.66113 316.575 480.03613 317.09064Q479.42676 317.59064 478.47363 317.59064Q477.23926 317.59064 476.5205 316.7Q475.67676 315.6375 475.67676 313.21564ZM476.75488 313.21564Q476.75488 315.325 477.25488 316.02814Q477.75488 316.73126 478.47363 316.73126Q479.208 316.73126 479.69238 316.02814Q480.19238 315.325 480.19238 313.21564Q480.19238 311.09064 479.69238 310.40314Q479.208 309.7 478.458 309.7Q477.73926 309.7 477.30176 310.3094Q476.75488 311.09064 476.75488 313.21564Z" fill-rule="nonzero"/><path fill="#000000" d="M563.65735 317.45L562.6105 317.45L562.6105 310.73126Q562.21985 311.09064 561.59485 311.46564Q560.9855 311.825 560.5011 311.9969L560.5011 310.98126Q561.3761 310.5594 562.03235 309.98126Q562.7042 309.3875 562.9855 308.825L563.65735 308.825L563.65735 317.45ZM572.2355 316.4344L572.2355 317.45L566.548 317.45Q566.548 317.075 566.673 316.71564Q566.8917 316.1375 567.3605 315.575Q567.84485 315.0125 568.7511 314.27814Q570.15735 313.1219 570.6417 312.45Q571.1417 311.77814 571.1417 311.1844Q571.1417 310.5594 570.6886 310.1375Q570.2355 309.7 569.5167 309.7Q568.7511 309.7 568.298 310.15314Q567.84485 310.60626 567.8292 311.41876L566.7511 311.3094Q566.8605 310.09064 567.5792 309.46564Q568.3136 308.825 569.548 308.825Q570.78235 308.825 571.5011 309.5125Q572.21985 310.2 572.21985 311.21564Q572.21985 311.73126 572.0011 312.23126Q571.798 312.71564 571.298 313.27814Q570.8136 313.825 569.6886 314.77814Q568.7355 315.575 568.4542 315.8719Q568.1886 316.15314 568.0167 316.4344L572.2355 316.4344ZM573.6886 315.2L574.798 315.10626Q574.923 315.91876 575.3605 316.325Q575.8136 316.73126 576.4542 316.73126Q577.2042 316.73126 577.7355 316.15314Q578.2667 315.575 578.2667 314.6375Q578.2667 313.73126 577.7511 313.21564Q577.2511 312.6844 576.423 312.6844Q575.923 312.6844 575.5011 312.91876Q575.09485 313.15314 574.8605 313.5125L573.8761 313.3875L574.7042 308.98126L578.9855 308.98126L578.9855 309.98126L575.548 309.98126L575.09485 312.29376Q575.8605 311.7469 576.7042 311.7469Q577.8292 311.7469 578.59485 312.52814Q579.3761 313.3094 579.3761 314.54376Q579.3761 315.7 578.7042 316.5594Q577.8761 317.59064 576.4542 317.59064Q575.28235 317.59064 574.53235 316.9344Q573.798 316.27814 573.6886 315.2Z" fill-rule="nonzero"/><path fill="#999999" d="M18.6125 63.05L22.4875 57.83125L19.065624 53.034374L20.64375 53.034374L22.471874 55.596874Q23.034374 56.39375 23.26875 56.83125Q23.6125 56.284374 24.065624 55.690624L26.08125 53.034374L27.51875 53.034374L24.003124 57.753124L27.8 63.05L26.159374 63.05L23.64375 59.471874Q23.425 59.159374 23.20625 58.8Q22.8625 59.346874 22.721874 59.55L20.20625 63.05L18.6125 63.05ZM32.440624 60.70625L33.721874 60.8625Q33.409374 61.9875 32.596874 62.6125Q31.784374 63.221874 30.51875 63.221874Q28.925 63.221874 27.9875 62.2375Q27.065624 61.253124 27.065624 59.4875Q27.065624 57.64375 28.003124 56.64375Q28.95625 55.628124 30.45625 55.628124Q31.909374 55.628124 32.83125 56.628124Q33.753124 57.6125 33.753124 59.409374Q33.753124 59.51875 33.753124 59.7375L28.33125 59.7375Q28.409374 60.925 29.003124 61.565624Q29.6125 62.20625 30.534374 62.20625Q31.20625 62.20625 31.675 61.846874Q32.159374 61.4875 32.440624 60.70625ZM28.409374 58.721874L32.45625 58.721874Q32.378124 57.8 31.9875 57.346874Q31.409374 56.64375 30.471874 56.64375Q29.6125 56.64375 29.034374 57.20625Q28.471874 57.76875 28.409374 58.721874ZM35.01875 59.425Q35.01875 57.409374 36.14375 56.425Q37.065624 55.628124 38.425 55.628124Q39.909374 55.628124 40.8625 56.6125Q41.815624 57.58125 41.815624 59.315624Q41.815624 60.721874 41.39375 61.534374Q40.971874 62.33125 40.159374 62.784374Q39.3625 63.221874 38.425 63.221874Q36.89375 63.221874 35.95625 62.2375Q35.01875 61.253124 35.01875 59.425ZM36.284374 59.425Q36.284374 60.815624 36.89375 61.51875Q37.503124 62.20625 38.425 62.20625Q39.33125 62.20625 39.940624 61.503124Q40.55 60.8 40.55 59.378124Q40.55 58.034374 39.940624 57.346874Q39.33125 56.64375 38.425 56.64375Q37.503124 56.64375 36.89375 57.33125Q36.284374 58.01875 36.284374 59.425ZM43.471874 63.05L43.471874 55.784374L44.58125 55.784374L44.58125 56.815624Q45.378124 55.628124 46.89375 55.628124Q47.55 55.628124 48.096874 55.8625Q48.64375 56.096874 48.909374 56.4875Q49.190624 56.8625 49.3 57.39375Q49.378124 57.7375 49.378124 58.58125L49.378124 63.05L48.14375 63.05L48.14375 58.628124Q48.14375 57.878124 48.003124 57.51875Q47.8625 57.14375 47.4875 56.925Q47.128124 56.690624 46.628124 56.690624Q45.846874 56.690624 45.26875 57.190624Q44.70625 57.690624 44.70625 59.08125L44.70625 63.05L43.471874 63.05ZM55.628124 63.05L55.628124 53.034374L59.409374 53.034374Q60.409374 53.034374 60.940624 53.128124Q61.675 53.253124 62.175 53.596874Q62.675 53.940624 62.971874 54.565624Q63.284374 55.175 63.284374 55.925Q63.284374 57.20625 62.471874 58.096874Q61.659374 58.971874 59.534374 58.971874L56.95625 58.971874L56.95625 63.05L55.628124 63.05ZM56.95625 57.8L59.55 57.8Q60.83125 57.8 61.3625 57.315624Q61.909374 56.83125 61.909374 55.971874Q61.909374 55.33125 61.596874 54.89375Q61.284374 54.440624 60.753124 54.3Q60.425 54.20625 59.51875 54.20625L56.95625 54.20625L56.95625 57.8ZM64.44063 63.05L64.44063 53.034374L65.675 53.034374L65.675 63.05L64.44063 63.05ZM72.20625 62.159374Q71.53438 62.7375 70.89375 62.9875Q70.26875 63.221874 69.53438 63.221874Q68.34688 63.221874 67.69063 62.64375Q67.05 62.05 67.05 61.128124Q67.05 60.596874 67.28438 60.159374Q67.53438 59.721874 67.925 59.45625Q68.33125 59.190624 68.81563 59.05Q69.175 58.95625 69.90938 58.8625Q71.40938 58.690624 72.1125 58.440624Q72.1125 58.190624 72.1125 58.128124Q72.1125 57.3625 71.76875 57.065624Q71.3 56.64375 70.3625 56.64375Q69.50313 56.64375 69.08125 56.95625Q68.675 57.253124 68.47188 58.01875L67.26875 57.8625Q67.425 57.08125 67.8 56.6125Q68.19063 56.14375 68.89375 55.89375Q69.6125 55.628124 70.55 55.628124Q71.47188 55.628124 72.05 55.846874Q72.62813 56.065624 72.89375 56.39375Q73.175 56.721874 73.28438 57.2375Q73.34688 57.55 73.34688 58.3625L73.34688 60.003124Q73.34688 61.721874 73.425 62.175Q73.50313 62.628124 73.7375 63.05L72.45625 63.05Q72.26875 62.659374 72.20625 62.159374ZM72.1125 59.409374Q71.44063 59.675 70.09688 59.878124Q69.34688 59.9875 69.01875 60.128124Q68.70625 60.253124 68.53438 60.51875Q68.3625 60.784374 68.3625 61.096874Q68.3625 61.596874 68.7375 61.925Q69.1125 62.253124 69.83125 62.253124Q70.55 62.253124 71.09688 61.940624Q71.64375 61.628124 71.90938 61.08125Q72.1125 60.675 72.1125 59.8625L72.1125 59.409374ZM78.15938 61.95625L78.33125 63.034374Q77.81563 63.14375 77.40938 63.14375Q76.7375 63.14375 76.3625 62.940624Q76.00313 62.721874 75.84688 62.378124Q75.70625 62.034374 75.70625 60.925L75.70625 56.753124L74.8 56.753124L74.8 55.784374L75.70625 55.784374L75.70625 53.9875L76.925 53.253124L76.925 55.784374L78.15938 55.784374L78.15938 56.753124L76.925 56.753124L76.925 60.9875Q76.925 61.51875 76.9875 61.675Q77.05 61.815624 77.19063 61.909374Q77.34688 62.003124 77.6125 62.003124Q77.83125 62.003124 78.15938 61.95625ZM79.4875 54.440624L79.4875 53.034374L80.70625 53.034374L80.70625 54.440624L79.4875 54.440624ZM79.4875 63.05L79.4875 55.784374L80.70625 55.784374L80.70625 63.05L79.4875 63.05ZM82.47188 63.05L82.47188 55.784374L83.58125 55.784374L83.58125 56.815624Q84.37813 55.628124 85.89375 55.628124Q86.55 55.628124 87.09688 55.8625Q87.64375 56.096874 87.90938 56.4875Q88.19063 56.8625 88.3 57.39375Q88.37813 57.7375 88.37813 58.58125L88.37813 63.05L87.14375 63.05L87.14375 58.628124Q87.14375 57.878124 87.00313 57.51875Q86.8625 57.14375 86.4875 56.925Q86.12813 56.690624 85.62813 56.690624Q84.84688 56.690624 84.26875 57.190624Q83.70625 57.690624 83.70625 59.08125L83.70625 63.05L82.47188 63.05ZM95.2375 63.05L95.2375 61.9875Q94.37813 63.221874 92.925 63.221874Q92.28438 63.221874 91.72188 62.971874Q91.175 62.721874 90.89375 62.346874Q90.62813 61.971874 90.51875 61.440624Q90.44063 61.08125 90.44063 60.284374L90.44063 55.784374L91.675 55.784374L91.675 59.815624Q91.675 60.784374 91.75313 61.1125Q91.8625 61.596874 92.2375 61.878124Q92.6125 62.159374 93.175 62.159374Q93.72188 62.159374 94.20625 61.878124Q94.69063 61.58125 94.89375 61.096874Q95.09688 60.6125 95.09688 59.675L95.09688 55.784374L96.33125 55.784374L96.33125 63.05L95.2375 63.05ZM98.47188 63.05L98.47188 55.784374L99.58125 55.784374L99.58125 56.815624Q99.90938 56.26875 100.47188 55.95625Q101.05 55.628124 101.76875 55.628124Q102.58125 55.628124 103.09688 55.971874Q103.6125 56.3 103.83125 56.89375Q104.69063 55.628124 106.06563 55.628124Q107.14375 55.628124 107.72188 56.221874Q108.31563 56.815624 108.31563 58.065624L108.31563 63.05L107.08125 63.05L107.08125 58.471874Q107.08125 57.7375 106.95625 57.409374Q106.84688 57.08125 106.53438 56.89375Q106.22188 56.690624 105.8 56.690624Q105.03438 56.690624 104.51875 57.20625Q104.01875 57.70625 104.01875 58.83125L104.01875 63.05L102.78438 63.05L102.78438 58.33125Q102.78438 57.51875 102.4875 57.1125Q102.19063 56.690624 101.50313 56.690624Q100.9875 56.690624 100.53438 56.971874Q100.09688 57.2375 99.89375 57.76875Q99.70625 58.284374 99.70625 59.284374L99.70625 63.05L98.47188 63.05ZM115.01875 57.6125Q114.25313 57.33125 113.87813 56.815624Q113.51875 56.3 113.51875 55.565624Q113.51875 54.471874 114.3 53.7375Q115.09688 52.9875 116.39375 52.9875Q117.70625 52.9875 118.50313 53.753124Q119.31563 54.51875 119.31563 55.6125Q119.31563 56.3 118.94063 56.815624Q118.58125 57.33125 117.83125 57.6125Q118.75313 57.909374 119.2375 58.58125Q119.72188 59.253124 119.72188 60.190624Q119.72188 61.471874 118.81563 62.346874Q117.90938 63.221874 116.425 63.221874Q114.94063 63.221874 114.01875 62.346874Q113.1125 61.45625 113.1125 60.14375Q113.1125 59.175 113.6125 58.51875Q114.1125 57.846874 115.01875 57.6125ZM114.78438 55.534374Q114.78438 56.2375 115.2375 56.690624Q115.69063 57.14375 116.425 57.14375Q117.14375 57.14375 117.59688 56.70625Q118.05 56.253124 118.05 55.596874Q118.05 54.925 117.58125 54.471874Q117.1125 54.003124 116.40938 54.003124Q115.70625 54.003124 115.2375 54.45625Q114.78438 54.89375 114.78438 55.534374ZM114.37813 60.159374Q114.37813 60.690624 114.62813 61.190624Q114.87813 61.675 115.3625 61.940624Q115.8625 62.20625 116.44063 62.20625Q117.31563 62.20625 117.87813 61.64375Q118.45625 61.08125 118.45625 60.20625Q118.45625 59.315624 117.8625 58.7375Q117.28438 58.14375 116.39375 58.14375Q115.51875 58.14375 114.94063 58.721874Q114.37813 59.3 114.37813 60.159374ZM127.59688 61.8625L127.59688 63.05L120.97188 63.05Q120.95625 62.6125 121.1125 62.190624Q121.37813 61.51875 121.925 60.8625Q122.4875 60.20625 123.53438 59.346874Q125.175 58.003124 125.7375 57.221874Q126.31563 56.440624 126.31563 55.7375Q126.31563 55.003124 125.78438 54.503124Q125.26875 54.003124 124.44063 54.003124Q123.55 54.003124 123.00313 54.534374Q122.47188 55.065624 122.47188 56.01875L121.20625 55.878124Q121.33125 54.471874 122.175 53.7375Q123.03438 52.9875 124.45625 52.9875Q125.90938 52.9875 126.7375 53.784374Q127.58125 54.58125 127.58125 55.76875Q127.58125 56.378124 127.33125 56.95625Q127.09688 57.534374 126.51875 58.175Q125.95625 58.815624 124.62813 59.940624Q123.51875 60.8625 123.20625 61.20625Q122.89375 61.534374 122.69063 61.8625L127.59688 61.8625ZM129.20625 54.346874L129.20625 53.159374L135.70625 53.159374L135.70625 54.1125Q134.7375 55.128124 133.8 56.815624Q132.8625 58.503124 132.34688 60.3Q131.9875 61.55 131.87813 63.05L130.6125 63.05Q130.62813 61.8625 131.06563 60.190624Q131.51875 58.51875 132.34688 56.971874Q133.19063 55.409374 134.12813 54.346874L129.20625 54.346874ZM137.12813 60.425L138.425 60.315624Q138.56563 61.253124 139.08125 61.7375Q139.6125 62.20625 140.34688 62.20625Q141.2375 62.20625 141.84688 61.534374Q142.47188 60.8625 142.47188 59.76875Q142.47188 58.70625 141.87813 58.096874Q141.28438 57.4875 140.33125 57.4875Q139.7375 57.4875 139.25313 57.76875Q138.78438 58.034374 138.50313 58.45625L137.34688 58.315624L138.31563 53.159374L143.3 53.159374L143.3 54.346874L139.3 54.346874L138.76875 57.034374Q139.675 56.409374 140.65938 56.409374Q141.97188 56.409374 142.8625 57.315624Q143.76875 58.221874 143.76875 59.659374Q143.76875 61.01875 142.9875 62.003124Q142.01875 63.221874 140.34688 63.221874Q138.9875 63.221874 138.1125 62.45625Q137.25313 61.690624 137.12813 60.425ZM152.78438 59.534374L154.1125 59.878124Q153.69063 61.503124 152.59688 62.3625Q151.51875 63.221874 149.95625 63.221874Q148.33125 63.221874 147.31563 62.565624Q146.3 61.89375 145.76875 60.64375Q145.25313 59.39375 145.25313 57.95625Q145.25313 56.39375 145.84688 55.2375Q146.44063 54.065624 147.55 53.471874Q148.65938 52.8625 149.97188 52.8625Q151.4875 52.8625 152.50313 53.628124Q153.53438 54.39375 153.94063 55.76875L152.62813 56.08125Q152.28438 54.9875 151.6125 54.4875Q150.95625 53.9875 149.95625 53.9875Q148.8 53.9875 148.01875 54.55Q147.2375 55.096874 146.925 56.034374Q146.6125 56.971874 146.6125 57.95625Q146.6125 59.2375 146.9875 60.190624Q147.3625 61.14375 148.14375 61.6125Q148.925 62.08125 149.84688 62.08125Q150.95625 62.08125 151.72188 61.440624Q152.50313 60.8 152.78438 59.534374ZM155.58125 63.05L155.58125 53.034374L156.90938 53.034374L156.90938 61.8625L161.83125 61.8625L161.83125 63.05L155.58125 63.05ZM174.78438 59.534374L176.1125 59.878124Q175.69063 61.503124 174.59688 62.3625Q173.51875 63.221874 171.95625 63.221874Q170.33125 63.221874 169.31563 62.565624Q168.3 61.89375 167.76875 60.64375Q167.25313 59.39375 167.25313 57.95625Q167.25313 56.39375 167.84688 55.2375Q168.44063 54.065624 169.55 53.471874Q170.65938 52.8625 171.97188 52.8625Q173.4875 52.8625 174.50313 53.628124Q175.53438 54.39375 175.94063 55.76875L174.62813 56.08125Q174.28438 54.9875 173.6125 54.4875Q172.95625 53.9875 171.95625 53.9875Q170.8 53.9875 170.01875 54.55Q169.2375 55.096874 168.925 56.034374Q168.6125 56.971874 168.6125 57.95625Q168.6125 59.2375 168.9875 60.190624Q169.3625 61.14375 170.14375 61.6125Q170.925 62.08125 171.84688 62.08125Q172.95625 62.08125 173.72188 61.440624Q174.50313 60.8 174.78438 59.534374ZM177.62813 63.05L177.62813 53.034374L181.40938 53.034374Q182.40938 53.034374 182.94063 53.128124Q183.675 53.253124 184.175 53.596874Q184.675 53.940624 184.97188 54.565624Q185.28438 55.175 185.28438 55.925Q185.28438 57.20625 184.47188 58.096874Q183.65938 58.971874 181.53438 58.971874L178.95625 58.971874L178.95625 63.05L177.62813 63.05ZM178.95625 57.8L181.55 57.8Q182.83125 57.8 183.3625 57.315624Q183.90938 56.83125 183.90938 55.971874Q183.90938 55.33125 183.59688 54.89375Q183.28438 54.440624 182.75313 54.3Q182.425 54.20625 181.51875 54.20625L178.95625 54.20625L178.95625 57.8ZM193.20625 53.034374L194.53438 53.034374L194.53438 58.815624Q194.53438 60.33125 194.19063 61.221874Q193.84688 62.1125 192.95625 62.675Q192.06563 63.221874 190.6125 63.221874Q189.20625 63.221874 188.3 62.7375Q187.40938 62.253124 187.01875 61.33125Q186.64375 60.409374 186.64375 58.815624L186.64375 53.034374L187.97188 53.034374L187.97188 58.815624Q187.97188 60.1125 188.20625 60.7375Q188.45625 61.346874 189.05 61.690624Q189.64375 62.01875 190.50313 62.01875Q191.95625 62.01875 192.58125 61.3625Q193.20625 60.690624 193.20625 58.815624L193.20625 53.034374ZM206.4875 61.940624Q206.05 62.440624 205.4875 62.753124Q204.94063 63.065624 204.39375 63.065624Q203.78438 63.065624 203.20625 62.721874Q202.62813 62.3625 202.26875 61.628124Q201.90938 60.878124 201.90938 60.003124Q201.90938 58.909374 202.47188 57.83125Q203.03438 56.7375 203.84688 56.190624Q204.675 55.64375 205.45625 55.64375Q206.05 55.64375 206.59688 55.95625Q207.14375 56.26875 207.51875 56.89375L207.75313 55.83125L208.9875 55.83125L208.00313 60.425Q207.8 61.378124 207.8 61.4875Q207.8 61.675 207.925 61.815624Q208.06563 61.940624 208.26875 61.940624Q208.62813 61.940624 209.22188 61.51875Q210.00313 60.971874 210.45625 60.05Q210.90938 59.128124 210.90938 58.159374Q210.90938 57.01875 210.31563 56.034374Q209.7375 55.034374 208.58125 54.440624Q207.425 53.846874 206.01875 53.846874Q204.425 53.846874 203.09688 54.596874Q201.78438 55.33125 201.05 56.7375Q200.31563 58.128124 200.31563 59.7375Q200.31563 61.409374 201.05 62.628124Q201.78438 63.83125 203.15938 64.40938Q204.53438 64.9875 206.20625 64.9875Q208.00313 64.9875 209.20625 64.37813Q210.425 63.784374 211.01875 62.925L212.25313 62.925Q211.90938 63.64375 211.05 64.37813Q210.20625 65.12813 209.03438 65.56563Q207.87813 66.00313 206.22188 66.00313Q204.70625 66.00313 203.425 65.6125Q202.14375 65.22188 201.2375 64.44063Q200.34688 63.659374 199.87813 62.628124Q199.31563 61.346874 199.31563 59.846874Q199.31563 58.175 199.9875 56.659374Q200.83125 54.815624 202.3625 53.83125Q203.89375 52.846874 206.08125 52.846874Q207.78438 52.846874 209.12813 53.55Q210.47188 54.2375 211.25313 55.6125Q211.925 56.784374 211.925 58.175Q211.925 60.159374 210.53438 61.690624Q209.28438 63.08125 207.8 63.08125Q207.33125 63.08125 207.03438 62.940624Q206.75313 62.784374 206.6125 62.51875Q206.53438 62.346874 206.4875 61.940624ZM203.175 60.08125Q203.175 61.01875 203.6125 61.55Q204.06563 62.065624 204.64375 62.065624Q205.01875 62.065624 205.44063 61.83125Q205.87813 61.596874 206.25313 61.14375Q206.64375 60.690624 206.89375 60.003124Q207.14375 59.315624 207.14375 58.6125Q207.14375 57.690624 206.675 57.175Q206.20625 56.659374 205.55 56.659374Q205.1125 56.659374 204.72188 56.878124Q204.34688 57.096874 203.97188 57.596874Q203.6125 58.08125 203.39375 58.784374Q203.175 59.4875 203.175 60.08125ZM217.14375 60.409374L218.3625 60.2375Q218.58125 61.284374 219.08125 61.753124Q219.59688 62.20625 220.33125 62.20625Q221.20625 62.20625 221.8 61.6125Q222.39375 61.003124 222.39375 60.1125Q222.39375 59.26875 221.83125 58.721874Q221.28438 58.175 220.44063 58.175Q220.08125 58.175 219.56563 58.3L219.70625 57.221874Q219.83125 57.2375 219.89375 57.2375Q220.69063 57.2375 221.31563 56.83125Q221.94063 56.425 221.94063 55.565624Q221.94063 54.89375 221.4875 54.45625Q221.03438 54.003124 220.3 54.003124Q219.58125 54.003124 219.09688 54.45625Q218.62813 54.89375 218.4875 55.8L217.26875 55.58125Q217.4875 54.346874 218.28438 53.675Q219.08125 52.9875 220.26875 52.9875Q221.09688 52.9875 221.78438 53.346874Q222.47188 53.690624 222.83125 54.3Q223.20625 54.909374 223.20625 55.596874Q223.20625 56.2375 222.8625 56.76875Q222.51875 57.3 221.83125 57.628124Q222.72188 57.83125 223.20625 58.471874Q223.70625 59.1125 223.70625 60.096874Q223.70625 61.409374 222.7375 62.315624Q221.78438 63.221874 220.33125 63.221874Q219.00313 63.221874 218.12813 62.440624Q217.26875 61.659374 217.14375 60.409374ZM230.31563 59.1125L230.31563 57.940624L234.56563 57.940624L234.56563 61.659374Q233.58125 62.440624 232.53438 62.83125Q231.50313 63.221874 230.40938 63.221874Q228.94063 63.221874 227.72188 62.596874Q226.51875 61.95625 225.90938 60.76875Q225.3 59.565624 225.3 58.08125Q225.3 56.628124 225.90938 55.3625Q226.51875 54.08125 227.65938 53.471874Q228.81563 52.8625 230.31563 52.8625Q231.39375 52.8625 232.26875 53.221874Q233.15938 53.565624 233.65938 54.190624Q234.15938 54.815624 234.40938 55.83125L233.22188 56.159374Q232.9875 55.39375 232.64375 54.95625Q232.31563 54.51875 231.69063 54.253124Q231.08125 53.9875 230.31563 53.9875Q229.40938 53.9875 228.7375 54.26875Q228.08125 54.55 227.675 55.003124Q227.26875 55.440624 227.05 55.9875Q226.65938 56.925 226.65938 58.003124Q226.65938 59.346874 227.1125 60.253124Q227.58125 61.14375 228.45625 61.58125Q229.34688 62.01875 230.34688 62.01875Q231.20625 62.01875 232.01875 61.690624Q232.84688 61.3625 233.26875 60.9875L233.26875 59.1125L230.31563 59.1125ZM236.675 63.05L236.675 53.034374L238.00313 53.034374L238.00313 57.14375L243.20625 57.14375L243.20625 53.034374L244.53438 53.034374L244.53438 63.05L243.20625 63.05L243.20625 58.33125L238.00313 58.33125L238.00313 63.05L236.675 63.05ZM244.83125 63.05L244.83125 62.05L249.44063 56.753124Q248.65938 56.784374 248.05 56.784374L245.09688 56.784374L245.09688 55.784374L251.03438 55.784374L251.03438 56.596874L247.09688 61.20625L246.34688 62.05Q247.175 61.9875 247.89375 61.9875L251.25313 61.9875L251.25313 63.05L244.83125 63.05Z" fill-rule="nonzero"/><path fill="#757575" d="M30.315624 32.534374L32.20625 33.003124Q31.6125 35.346874 30.065624 36.58125Q28.51875 37.8 26.26875 37.8Q23.95625 37.8 22.503124 36.8625Q21.065624 35.909374 20.3 34.128124Q19.55 32.33125 19.55 30.284374Q19.55 28.05 20.39375 26.39375Q21.253124 24.721874 22.83125 23.8625Q24.409374 22.9875 26.3 22.9875Q28.45625 22.9875 29.909374 24.08125Q31.378124 25.175 31.95625 27.159374L30.096874 27.596874Q29.596874 26.034374 28.64375 25.33125Q27.70625 24.6125 26.26875 24.6125Q24.6125 24.6125 23.503124 25.409374Q22.39375 26.190624 21.940624 27.534374Q21.503124 28.8625 21.503124 30.26875Q21.503124 32.096874 22.034374 33.471874Q22.565624 34.83125 23.690624 35.503124Q24.815624 36.175 26.1125 36.175Q27.70625 36.175 28.815624 35.253124Q29.925 34.33125 30.315624 32.534374ZM33.8625 37.55L33.8625 23.2375L35.628124 23.2375L35.628124 28.3625Q36.8625 26.940624 38.7375 26.940624Q39.878124 26.940624 40.721874 27.39375Q41.58125 27.846874 41.940624 28.659374Q42.315624 29.45625 42.315624 30.971874L42.315624 37.55L40.565624 37.55L40.565624 30.971874Q40.565624 29.659374 39.9875 29.065624Q39.409374 28.45625 38.378124 28.45625Q37.596874 28.45625 36.89375 28.8625Q36.20625 29.26875 35.909374 29.971874Q35.628124 30.659374 35.628124 31.878124L35.628124 37.55L33.8625 37.55ZM50.971874 34.20625L52.784374 34.440624Q52.3625 36.01875 51.190624 36.909374Q50.034374 37.784374 48.221874 37.784374Q45.95625 37.784374 44.6125 36.39375Q43.284374 34.9875 43.284374 32.45625Q43.284374 29.83125 44.628124 28.39375Q45.971874 26.940624 48.128124 26.940624Q50.20625 26.940624 51.51875 28.3625Q52.846874 29.76875 52.846874 32.346874Q52.846874 32.503124 52.83125 32.815624L45.096874 32.815624Q45.190624 34.51875 46.065624 35.425Q46.940624 36.33125 48.2375 36.33125Q49.20625 36.33125 49.878124 35.83125Q50.565624 35.315624 50.971874 34.20625ZM45.190624 31.3625L50.9875 31.3625Q50.878124 30.065624 50.33125 29.409374Q49.4875 28.39375 48.14375 28.39375Q46.940624 28.39375 46.1125 29.20625Q45.284374 30.003124 45.190624 31.3625ZM61.64375 33.753124L63.3625 33.971874Q63.08125 35.76875 61.909374 36.784374Q60.753124 37.784374 59.05 37.784374Q56.925 37.784374 55.628124 36.39375Q54.33125 35.003124 54.33125 32.409374Q54.33125 30.721874 54.878124 29.471874Q55.440624 28.20625 56.58125 27.58125Q57.721874 26.940624 59.065624 26.940624Q60.753124 26.940624 61.815624 27.8Q62.89375 28.659374 63.20625 30.221874L61.4875 30.4875Q61.253124 29.440624 60.628124 28.925Q60.003124 28.39375 59.128124 28.39375Q57.8 28.39375 56.971874 29.346874Q56.14375 30.3 56.14375 32.346874Q56.14375 34.440624 56.940624 35.39375Q57.7375 36.33125 59.034374 36.33125Q60.065624 36.33125 60.753124 35.70625Q61.45625 35.065624 61.64375 33.753124ZM64.87813 37.55L64.87813 23.2375L66.64375 23.2375L66.64375 31.39375L70.8 27.175L73.06563 27.175L69.1125 31.01875L73.47188 37.55L71.3 37.55L67.87813 32.253124L66.64375 33.440624L66.64375 37.55L64.87813 37.55ZM74.8625 41.51875L74.8625 27.175L76.47188 27.175L76.47188 28.51875Q77.03438 27.7375 77.7375 27.346874Q78.45625 26.940624 79.47188 26.940624Q80.8 26.940624 81.81563 27.628124Q82.83125 28.315624 83.34688 29.565624Q83.87813 30.8 83.87813 32.284374Q83.87813 33.878124 83.3 35.159374Q82.7375 36.425 81.64375 37.1125Q80.55 37.784374 79.34688 37.784374Q78.47188 37.784374 77.76875 37.409374Q77.08125 37.034374 76.62813 36.471874L76.62813 41.51875L74.8625 41.51875ZM76.45625 32.425Q76.45625 34.425 77.26875 35.378124Q78.08125 36.33125 79.2375 36.33125Q80.40938 36.33125 81.2375 35.346874Q82.08125 34.3625 82.08125 32.26875Q82.08125 30.3 81.25313 29.315624Q80.44063 28.315624 79.31563 28.315624Q78.19063 28.315624 77.31563 29.378124Q76.45625 30.425 76.45625 32.425ZM85.22188 32.3625Q85.22188 29.4875 86.81563 28.096874Q88.15938 26.940624 90.08125 26.940624Q92.22188 26.940624 93.56563 28.346874Q94.925 29.753124 94.925 32.221874Q94.925 34.221874 94.33125 35.378124Q93.7375 36.51875 92.58125 37.159374Q91.44063 37.784374 90.08125 37.784374Q87.89375 37.784374 86.55 36.39375Q85.22188 34.9875 85.22188 32.3625ZM87.01875 32.3625Q87.01875 34.3625 87.87813 35.346874Q88.75313 36.33125 90.08125 36.33125Q91.39375 36.33125 92.25313 35.346874Q93.12813 34.346874 93.12813 32.3Q93.12813 30.378124 92.25313 29.39375Q91.37813 28.39375 90.08125 28.39375Q88.75313 28.39375 87.87813 29.39375Q87.01875 30.378124 87.01875 32.3625ZM96.87813 25.253124L96.87813 23.2375L98.64375 23.2375L98.64375 25.253124L96.87813 25.253124ZM96.87813 37.55L96.87813 27.175L98.64375 27.175L98.64375 37.55L96.87813 37.55ZM100.8625 37.55L100.8625 27.175L102.45625 27.175L102.45625 28.659374Q103.59688 26.940624 105.75313 26.940624Q106.69063 26.940624 107.47188 27.284374Q108.26875 27.6125 108.65938 28.159374Q109.05 28.70625 109.20625 29.45625Q109.3 29.95625 109.3 31.175L109.3 37.55L107.53438 37.55L107.53438 31.2375Q107.53438 30.159374 107.33125 29.628124Q107.12813 29.096874 106.59688 28.784374Q106.08125 28.471874 105.37813 28.471874Q104.25313 28.471874 103.44063 29.190624Q102.62813 29.89375 102.62813 31.878124L102.62813 37.55L100.8625 37.55ZM114.70625 35.971874L114.95625 37.534374Q114.22188 37.690624 113.62813 37.690624Q112.675 37.690624 112.14375 37.39375Q111.62813 37.08125 111.40938 36.596874Q111.19063 36.096874 111.19063 34.51875L111.19063 28.55L109.90938 28.55L109.90938 27.175L111.19063 27.175L111.19063 24.6125L112.94063 23.55L112.94063 27.175L114.70625 27.175L114.70625 28.55L112.94063 28.55L112.94063 34.6125Q112.94063 35.3625 113.03438 35.58125Q113.12813 35.784374 113.33125 35.925Q113.55 36.05 113.94063 36.05Q114.22188 36.05 114.70625 35.971874ZM122.83125 37.55L122.83125 23.2375L124.58125 23.2375L124.58125 37.55L122.83125 37.55ZM133.64375 36.26875Q132.65938 37.096874 131.75313 37.440624Q130.84688 37.784374 129.81563 37.784374Q128.1125 37.784374 127.19063 36.95625Q126.26875 36.1125 126.26875 34.815624Q126.26875 34.05 126.6125 33.425Q126.97188 32.8 127.53438 32.425Q128.09688 32.034374 128.8 31.83125Q129.31563 31.70625 130.3625 31.565624Q132.4875 31.315624 133.4875 30.971874Q133.50313 30.6125 133.50313 30.503124Q133.50313 29.440624 133.00313 28.9875Q132.33125 28.39375 131.00313 28.39375Q129.75313 28.39375 129.15938 28.83125Q128.58125 29.26875 128.3 30.378124L126.58125 30.14375Q126.81563 29.034374 127.34688 28.3625Q127.87813 27.675 128.89375 27.315624Q129.90938 26.940624 131.25313 26.940624Q132.58125 26.940624 133.40938 27.253124Q134.2375 27.565624 134.62813 28.05Q135.01875 28.51875 135.175 29.2375Q135.26875 29.690624 135.26875 30.8625L135.26875 33.20625Q135.26875 35.659374 135.37813 36.315624Q135.4875 36.95625 135.83125 37.55L133.9875 37.55Q133.72188 37.003124 133.64375 36.26875ZM133.4875 32.346874Q132.53438 32.7375 130.6125 33.003124Q129.53438 33.159374 129.08125 33.3625Q128.64375 33.55 128.39375 33.925Q128.14375 34.3 128.14375 34.76875Q128.14375 35.471874 128.675 35.940624Q129.20625 36.409374 130.2375 36.409374Q131.25313 36.409374 132.03438 35.971874Q132.83125 35.51875 133.20625 34.753124Q133.4875 34.14375 133.4875 32.9875L133.4875 32.346874ZM141.70625 35.971874L141.95625 37.534374Q141.22188 37.690624 140.62813 37.690624Q139.675 37.690624 139.14375 37.39375Q138.62813 37.08125 138.40938 36.596874Q138.19063 36.096874 138.19063 34.51875L138.19063 28.55L136.90938 28.55L136.90938 27.175L138.19063 27.175L138.19063 24.6125L139.94063 23.55L139.94063 27.175L141.70625 27.175L141.70625 28.55L139.94063 28.55L139.94063 34.6125Q139.94063 35.3625 140.03438 35.58125Q140.12813 35.784374 140.33125 35.925Q140.55 36.05 140.94063 36.05Q141.22188 36.05 141.70625 35.971874ZM150.97188 34.20625L152.78438 34.440624Q152.3625 36.01875 151.19063 36.909374Q150.03438 37.784374 148.22188 37.784374Q145.95625 37.784374 144.6125 36.39375Q143.28438 34.9875 143.28438 32.45625Q143.28438 29.83125 144.62813 28.39375Q145.97188 26.940624 148.12813 26.940624Q150.20625 26.940624 151.51875 28.3625Q152.84688 29.76875 152.84688 32.346874Q152.84688 32.503124 152.83125 32.815624L145.09688 32.815624Q145.19063 34.51875 146.06563 35.425Q146.94063 36.33125 148.2375 36.33125Q149.20625 36.33125 149.87813 35.83125Q150.56563 35.315624 150.97188 34.20625ZM145.19063 31.3625L150.9875 31.3625Q150.87813 30.065624 150.33125 29.409374Q149.4875 28.39375 148.14375 28.39375Q146.94063 28.39375 146.1125 29.20625Q145.28438 30.003124 145.19063 31.3625ZM154.8625 37.55L154.8625 27.175L156.45625 27.175L156.45625 28.659374Q157.59688 26.940624 159.75313 26.940624Q160.69063 26.940624 161.47188 27.284374Q162.26875 27.6125 162.65938 28.159374Q163.05 28.70625 163.20625 29.45625Q163.3 29.95625 163.3 31.175L163.3 37.55L161.53438 37.55L161.53438 31.2375Q161.53438 30.159374 161.33125 29.628124Q161.12813 29.096874 160.59688 28.784374Q160.08125 28.471874 159.37813 28.471874Q158.25313 28.471874 157.44063 29.190624Q156.62813 29.89375 156.62813 31.878124L156.62813 37.55L154.8625 37.55ZM171.64375 33.753124L173.3625 33.971874Q173.08125 35.76875 171.90938 36.784374Q170.75313 37.784374 169.05 37.784374Q166.925 37.784374 165.62813 36.39375Q164.33125 35.003124 164.33125 32.409374Q164.33125 30.721874 164.87813 29.471874Q165.44063 28.20625 166.58125 27.58125Q167.72188 26.940624 169.06563 26.940624Q170.75313 26.940624 171.81563 27.8Q172.89375 28.659374 173.20625 30.221874L171.4875 30.4875Q171.25313 29.440624 170.62813 28.925Q170.00313 28.39375 169.12813 28.39375Q167.8 28.39375 166.97188 29.346874Q166.14375 30.3 166.14375 32.346874Q166.14375 34.440624 166.94063 35.39375Q167.7375 36.33125 169.03438 36.33125Q170.06563 36.33125 170.75313 35.70625Q171.45625 35.065624 171.64375 33.753124ZM174.78438 41.55L174.59688 39.89375Q175.175 40.05 175.59688 40.05Q176.19063 40.05 176.53438 39.846874Q176.89375 39.659374 177.1125 39.315624Q177.28438 39.05 177.65938 38.003124Q177.70625 37.846874 177.81563 37.565624L173.87813 27.175L175.76875 27.175L177.925 33.190624Q178.34688 34.33125 178.675 35.58125Q178.9875 34.378124 179.39375 33.221874L181.6125 27.175L183.37813 27.175L179.425 37.721874Q178.8 39.440624 178.44063 40.08125Q177.97188 40.95625 177.3625 41.346874Q176.76875 41.753124 175.925 41.753124Q175.40938 41.753124 174.78438 41.55Z" fill-rule="nonzero"/></svg>