<svg version="1.1" viewBox="0.0 0.0 638.0 396.0" fill="none" stroke="none" stroke-linecap="square" stroke-miterlimit="10" width="638" height="396" xmlns:xlink="http://www.w3.org/1999/xlink" xmlns="http://www.w3.org/2000/svg"><path fill="#ffffff" d="M0 0L638.0 0L638.0 396.0L0 396.0L0 0Z" fill-rule="nonzero"/><path stroke="#cccccc" stroke-width="1.0" stroke-linecap="butt" d="M180.5 87.5L180.5 324.5" fill-rule="nonzero"/><path stroke="#cccccc" stroke-width="1.0" stroke-linecap="butt" d="M286.5 87.5L286.5 324.5" fill-rule="nonzero"/><path stroke="#cccccc" stroke-width="1.0" stroke-linecap="butt" d="M393.5 87.5L393.5 324.5" fill-rule="nonzero"/><path stroke="#cccccc" stroke-width="1.0" stroke-linecap="butt" d="M499.5 87.5L499.5 324.5" fill-rule="nonzero"/><path stroke="#cccccc" stroke-width="1.0" stroke-linecap="butt" d="M605.5 87.5L605.5 324.5" fill-rule="nonzero"/><path stroke="#333333" stroke-width="1.0" stroke-linecap="butt" d="M78.5 324.5L618.5 324.5" fill-rule="nonzero"/><path stroke="#cccccc" stroke-width="1.0" stroke-linecap="butt" d="M78.5 254.5L618.5 254.5" fill-rule="nonzero"/><path stroke="#cccccc" stroke-width="1.0" stroke-linecap="butt" d="M78.5 184.5L618.5 184.5" fill-rule="nonzero"/><path stroke="#cccccc" stroke-width="1.0" stroke-linecap="butt" d="M78.5 115.5L618.5 115.5" fill-rule="nonzero"/><path stroke="#b7b7b7" stroke-width="1.0" stroke-linecap="butt" d="M78.5 300.5L618.5 300.5" fill-rule="nonzero"/><path stroke="#b7b7b7" stroke-width="1.0" stroke-linecap="butt" d="M78.5 277.5L618.5 277.5" fill-rule="nonzero"/><path stroke="#b7b7b7" stroke-width="1.0" stroke-linecap="butt" d="M78.5 231.5L618.5 231.5" fill-rule="nonzero"/><path stroke="#b7b7b7" stroke-width="1.0" stroke-linecap="butt" d="M78.5 208.5L618.5 208.5" fill-rule="nonzero"/><path stroke="#b7b7b7" stroke-width="1.0" stroke-linecap="butt" d="M78.5 161.5L618.5 161.5" fill-rule="nonzero"/><path stroke="#b7b7b7" stroke-width="1.0" stroke-linecap="butt" d="M78.5 138.5L618.5 138.5" fill-rule="nonzero"/><path stroke="#b7b7b7" stroke-width="1.0" stroke-linecap="butt" d="M78.5 92.5L618.5 92.5" fill-rule="nonzero"/><path stroke="#000000" stroke-width="1.0" stroke-linecap="butt" d="M78.5 324.5L78.5 87.5" fill-rule="nonzero"/><clipPath id="id_0"><path d="M78.8 87.5L618.2 87.5L618.2 324.2L78.8 324.2L78.8 87.5Z" clip-rule="nonzero"/></clipPath><path stroke="#4285f4" stroke-width="2.0" stroke-linecap="butt" clip-path="url(#id_0)" d="M78.8 87.5L91.54173 254.58235L108.53071 292.17587L142.50867 297.7453L210.46457 299.13763L346.37637 299.13763L618.2 303.3147" fill-rule="nonzero"/><path fill="#000000" fill-opacity="0.0" clip-path="url(#id_0)" d="M81.8 87.5C81.8 89.15685 80.456856 90.5 78.8 90.5C77.14314 90.5 75.8 89.15685 75.8 87.5C75.8 85.84315 77.14314 84.5 78.8 84.5C80.456856 84.5 81.8 85.84315 81.8 87.5Z" fill-rule="nonzero"/><path fill="#000000" fill-opacity="0.0" clip-path="url(#id_0)" d="M94.54173 254.58235C94.54173 256.2392 93.198586 257.58237 91.54173 257.58237C89.88488 257.58237 88.54173 256.2392 88.54173 254.58235C88.54173 252.92549 89.88488 251.58235 91.54173 251.58235C93.198586 251.58235 94.54173 252.92549 94.54173 254.58235Z" fill-rule="nonzero"/><path fill="#000000" fill-opacity="0.0" clip-path="url(#id_0)" d="M111.53071 292.17587C111.53071 293.83273 110.18756 295.17587 108.53071 295.17587C106.873856 295.17587 105.53071 293.83273 105.53071 292.17587C105.53071 290.51904 106.873856 289.17587 108.53071 289.17587C110.18756 289.17587 111.53071 290.51904 111.53071 292.17587Z" fill-rule="nonzero"/><path fill="#000000" fill-opacity="0.0" clip-path="url(#id_0)" d="M145.50867 297.7453C145.50867 299.40216 144.16551 300.7453 142.50867 300.7453C140.8518 300.7453 139.50867 299.40216 139.50867 297.7453C139.50867 296.08844 140.8518 294.7453 142.50867 294.7453C144.16551 294.7453 145.50867 296.08844 145.50867 297.7453Z" fill-rule="nonzero"/><path fill="#000000" fill-opacity="0.0" clip-path="url(#id_0)" d="M213.46457 299.13763C213.46457 300.7945 212.12141 302.13763 210.46457 302.13763C208.80771 302.13763 207.46457 300.7945 207.46457 299.13763C207.46457 297.4808 208.80771 296.13763 210.46457 296.13763C212.12141 296.13763 213.46457 297.4808 213.46457 299.13763Z" fill-rule="nonzero"/><path fill="#000000" fill-opacity="0.0" clip-path="url(#id_0)" d="M349.37637 299.13763C349.37637 300.7945 348.03323 302.13763 346.37637 302.13763C344.7195 302.13763 343.37637 300.7945 343.37637 299.13763C343.37637 297.4808 344.7195 296.13763 346.37637 296.13763C348.03323 296.13763 349.37637 297.4808 349.37637 299.13763Z" fill-rule="nonzero"/><path fill="#000000" fill-opacity="0.0" clip-path="url(#id_0)" d="M621.2 303.3147C621.2 304.97156 619.8569 306.3147 618.2 306.3147C616.54315 306.3147 615.2 304.97156 615.2 303.3147C615.2 301.65784 616.54315 300.3147 618.2 300.3147C619.8569 300.3147 621.2 301.65784 621.2 303.3147Z" fill-rule="nonzero"/><path fill="#000000" d="M330.59375 372.2625L330.75 373.1844Q330.29688 373.27814 329.95312 373.27814Q329.375 373.27814 329.0625 373.10626Q328.75 372.91876 328.60938 372.6219Q328.48438 372.325 328.48438 371.3719L328.48438 367.79376L327.71875 367.79376L327.71875 366.98126L328.48438 366.98126L328.48438 365.4344L329.53125 364.8094L329.53125 366.98126L330.59375 366.98126L330.59375 367.79376L329.53125 367.79376L329.53125 371.4344Q329.53125 371.8875 329.57812 372.0125Q329.64062 372.1375 329.76562 372.21564Q329.89062 372.29376 330.125 372.29376Q330.3125 372.29376 330.59375 372.2625ZM331.29688 373.2L331.29688 364.60626L332.34375 364.60626L332.34375 367.6844Q333.07812 366.84064 334.20312 366.84064Q334.90625 366.84064 335.40625 367.1219Q335.92188 367.3875 336.14062 367.8719Q336.35938 368.34064 336.35938 369.2625L336.35938 373.2L335.3125 373.2L335.3125 369.2625Q335.3125 368.46564 334.96875 368.10626Q334.625 367.7469 334.0 367.7469Q333.53125 367.7469 333.10938 367.9969Q332.70312 368.23126 332.51562 368.65314Q332.34375 369.0594 332.34375 369.79376L332.34375 373.2L331.29688 373.2ZM338.28125 373.2L338.28125 366.98126L339.23438 366.98126L339.23438 367.91876Q339.59375 367.2625 339.89062 367.0594Q340.20312 366.84064 340.57812 366.84064Q341.10938 366.84064 341.65625 367.16876L341.29688 368.15314Q340.90625 367.91876 340.53125 367.91876Q340.17188 367.91876 339.89062 368.1375Q339.625 368.34064 339.51562 368.71564Q339.32812 369.27814 339.32812 369.9344L339.32812 373.2L338.28125 373.2ZM346.54688 371.2L347.64062 371.325Q347.39062 372.27814 346.6875 372.8094Q345.98438 373.34064 344.90625 373.34064Q343.54688 373.34064 342.73438 372.4969Q341.9375 371.65314 341.9375 370.1375Q341.9375 368.575 342.75 367.71564Q343.5625 366.84064 344.84375 366.84064Q346.09375 366.84064 346.875 367.6844Q347.67188 368.52814 347.67188 370.075Q347.67188 370.16876 347.67188 370.35626L343.03125 370.35626Q343.09375 371.3875 343.60938 371.9344Q344.125 372.46564 344.90625 372.46564Q345.48438 372.46564 345.89062 372.16876Q346.3125 371.85626 346.54688 371.2ZM343.09375 369.4969L346.5625 369.4969Q346.5 368.7 346.17188 368.3094Q345.65625 367.7 344.85938 367.7Q344.125 367.7 343.625 368.1844Q343.14062 368.66876 343.09375 369.4969ZM353.35938 372.4344Q352.76562 372.9344 352.21875 373.1375Q351.6875 373.34064 351.0625 373.34064Q350.03125 373.34064 349.48438 372.84064Q348.9375 372.34064 348.9375 371.5594Q348.9375 371.10626 349.14062 370.73126Q349.34375 370.34064 349.6875 370.1219Q350.03125 369.8875 350.45312 369.77814Q350.75 369.6844 351.39062 369.60626Q352.65625 369.46564 353.26562 369.2469Q353.26562 369.02814 353.26562 368.98126Q353.26562 368.325 352.96875 368.0594Q352.5625 367.71564 351.76562 367.71564Q351.03125 367.71564 350.67188 367.98126Q350.3125 368.23126 350.14062 368.8875L349.10938 368.7469Q349.25 368.09064 349.57812 367.6844Q349.90625 367.27814 350.51562 367.0594Q351.125 366.84064 351.92188 366.84064Q352.71875 366.84064 353.21875 367.02814Q353.71875 367.21564 353.95312 367.4969Q354.1875 367.77814 354.28125 368.21564Q354.32812 368.48126 354.32812 369.1844L354.32812 370.59064Q354.32812 372.0594 354.39062 372.45Q354.46875 372.84064 354.67188 373.2L353.5625 373.2Q353.40625 372.8719 353.35938 372.4344ZM353.26562 370.075Q352.6875 370.3094 351.54688 370.48126Q350.89062 370.575 350.625 370.7Q350.35938 370.8094 350.20312 371.02814Q350.0625 371.2469 350.0625 371.52814Q350.0625 371.95 350.375 372.23126Q350.70312 372.5125 351.3125 372.5125Q351.92188 372.5125 352.39062 372.2469Q352.875 371.98126 353.09375 371.5125Q353.26562 371.15314 353.26562 370.46564L353.26562 370.075ZM360.32812 373.2L360.32812 372.41876Q359.73438 373.34064 358.59375 373.34064Q357.84375 373.34064 357.21875 372.9344Q356.59375 372.5125 356.25 371.77814Q355.90625 371.04376 355.90625 370.09064Q355.90625 369.16876 356.21875 368.40314Q356.53125 367.6375 357.15625 367.2469Q357.78125 366.84064 358.54688 366.84064Q359.10938 366.84064 359.54688 367.075Q359.98438 367.3094 360.26562 367.6844L360.26562 364.60626L361.3125 364.60626L361.3125 373.2L360.32812 373.2ZM357.0 370.09064Q357.0 371.29376 357.5 371.8875Q358.0 372.46564 358.6875 372.46564Q359.375 372.46564 359.85938 371.90314Q360.34375 371.34064 360.34375 370.1844Q360.34375 368.90314 359.84375 368.3094Q359.35938 367.71564 358.64062 367.71564Q357.9375 367.71564 357.46875 368.29376Q357.0 368.85626 357.0 370.09064ZM362.875 371.34064L363.90625 371.1844Q364.0 371.8094 364.39062 372.1375Q364.79688 372.46564 365.53125 372.46564Q366.25 372.46564 366.59375 372.1844Q366.95312 371.8875 366.95312 371.48126Q366.95312 371.1219 366.64062 370.91876Q366.42188 370.77814 365.5625 370.5594Q364.40625 370.2625 363.95312 370.0594Q363.51562 369.84064 363.28125 369.46564Q363.04688 369.09064 363.04688 368.6219Q363.04688 368.21564 363.23438 367.85626Q363.42188 367.4969 363.75 367.2625Q364.0 367.09064 364.42188 366.96564Q364.84375 366.84064 365.34375 366.84064Q366.0625 366.84064 366.60938 367.0594Q367.17188 367.2625 367.4375 367.6219Q367.70312 367.98126 367.79688 368.575L366.76562 368.71564Q366.70312 368.2469 366.35938 367.98126Q366.03125 367.7 365.40625 367.7Q364.6875 367.7 364.375 367.95Q364.0625 368.1844 364.0625 368.5125Q364.0625 368.71564 364.1875 368.8719Q364.32812 369.04376 364.59375 369.15314Q364.75 369.21564 365.53125 369.41876Q366.65625 369.73126 367.09375 369.91876Q367.53125 370.10626 367.78125 370.46564Q368.03125 370.825 368.03125 371.3719Q368.03125 371.90314 367.71875 372.3719Q367.42188 372.825 366.84375 373.09064Q366.26562 373.34064 365.53125 373.34064Q364.3125 373.34064 363.67188 372.84064Q363.04688 372.325 362.875 371.34064Z" fill-rule="nonzero"/><path fill="#000000" d="M30.800013 240.58438L22.206263 240.58438L22.206263 239.52188L30.800013 239.52188L30.800013 240.58438ZM30.034388 233.49063Q30.534388 234.08438 30.737513 234.63126Q30.940638 235.1625 30.940638 235.7875Q30.940638 236.81876 30.440638 237.36563Q29.940638 237.9125 29.159388 237.9125Q28.706263 237.9125 28.331263 237.70938Q27.940638 237.50626 27.721888 237.1625Q27.487513 236.81876 27.378138 236.39688Q27.284388 236.1 27.206263 235.45938Q27.065638 234.19376 26.846888 233.58438Q26.628138 233.58438 26.581263 233.58438Q25.925013 233.58438 25.659388 233.88126Q25.315638 234.2875 25.315638 235.08438Q25.315638 235.81876 25.581263 236.17813Q25.831263 236.5375 26.487513 236.70938L26.346888 237.74063Q25.690638 237.6 25.284388 237.27188Q24.878138 236.94376 24.659388 236.33438Q24.440638 235.725 24.440638 234.92813Q24.440638 234.13126 24.628138 233.63126Q24.815638 233.13126 25.096888 232.89688Q25.378138 232.6625 25.815638 232.56876Q26.081263 232.52188 26.784388 232.52188L28.190638 232.52188Q29.659388 232.52188 30.050013 232.45938Q30.440638 232.38126 30.800013 232.17813L30.800013 233.2875Q30.471888 233.44376 30.034388 233.49063ZM27.675013 233.58438Q27.909388 234.1625 28.081263 235.30313Q28.175013 235.95938 28.300013 236.225Q28.409388 236.49063 28.628138 236.64688Q28.846888 236.7875 29.128138 236.7875Q29.550013 236.7875 29.831263 236.475Q30.112513 236.14688 30.112513 235.5375Q30.112513 234.92813 29.846888 234.45938Q29.581263 233.975 29.112513 233.75626Q28.753138 233.58438 28.065638 233.58438L27.675013 233.58438ZM29.862513 228.25626L30.784388 228.1Q30.878138 228.55313 30.878138 228.89688Q30.878138 229.475 30.706263 229.7875Q30.518763 230.1 30.221888 230.24063Q29.925013 230.36563 28.971888 230.36563L25.393763 230.36563L25.393763 231.13126L24.581263 231.13126L24.581263 230.36563L23.034388 230.36563L22.409388 229.31876L24.581263 229.31876L24.581263 228.25626L25.393763 228.25626L25.393763 229.31876L29.034388 229.31876Q29.487513 229.31876 29.612513 229.27188Q29.737513 229.20938 29.815638 229.08438Q29.893763 228.95938 29.893763 228.725Q29.893763 228.5375 29.862513 228.25626ZM28.800013 223.30313L28.925013 222.20938Q29.878138 222.45938 30.409388 223.1625Q30.940638 223.86563 30.940638 224.94376Q30.940638 226.30313 30.096888 227.11563Q29.253138 227.9125 27.737513 227.9125Q26.175013 227.9125 25.315638 227.1Q24.440638 226.2875 24.440638 225.00626Q24.440638 223.75626 25.284388 222.975Q26.128138 222.17813 27.675013 222.17813Q27.768763 222.17813 27.956263 222.17813L27.956263 226.81876Q28.987513 226.75626 29.534388 226.24063Q30.065638 225.725 30.065638 224.94376Q30.065638 224.36563 29.768763 223.95938Q29.456263 223.5375 28.800013 223.30313ZM27.096888 226.75626L27.096888 223.2875Q26.300013 223.35 25.909388 223.67813Q25.300013 224.19376 25.300013 224.99063Q25.300013 225.725 25.784388 226.225Q26.268763 226.70938 27.096888 226.75626ZM30.800013 220.55313L24.581263 220.55313L24.581263 219.61563L25.456263 219.61563Q24.440638 218.92813 24.440638 217.63126Q24.440638 217.06876 24.643763 216.6Q24.846888 216.11563 25.175013 215.88126Q25.503138 215.64688 25.940638 215.55313Q26.237513 215.50626 26.971888 215.50626L30.800013 215.50626L30.800013 216.55313L27.018763 216.55313Q26.362513 216.55313 26.050013 216.67813Q25.737513 216.80313 25.550013 217.11563Q25.346888 217.42813 25.346888 217.85Q25.346888 218.52188 25.784388 219.02188Q26.206263 219.50626 27.393763 219.50626L30.800013 219.50626L30.800013 220.55313ZM28.518763 209.49063L28.659388 208.45938Q29.721888 208.63126 30.331263 209.33438Q30.940638 210.0375 30.940638 211.05313Q30.940638 212.33438 30.112513 213.11563Q29.268763 213.88126 27.706263 213.88126Q26.706263 213.88126 25.956263 213.55313Q25.190638 213.20938 24.815638 212.5375Q24.440638 211.85 24.440638 211.0375Q24.440638 210.0375 24.956263 209.39688Q25.456263 208.74063 26.409388 208.55313L26.565638 209.58438Q25.940638 209.725 25.628138 210.1Q25.300013 210.475 25.300013 211.00626Q25.300013 211.80313 25.878138 212.30313Q26.440638 212.80313 27.675013 212.80313Q28.940638 212.80313 29.503138 212.31876Q30.065638 211.83438 30.065638 211.06876Q30.065638 210.44376 29.690638 210.0375Q29.315638 209.61563 28.518763 209.49063ZM33.190636 207.6L32.20626 207.725Q32.30001 207.38126 32.30001 207.11563Q32.30001 206.77188 32.17501 206.56876Q32.065636 206.35 31.862513 206.20938Q31.690638 206.11563 31.065638 205.88126Q30.987513 205.86563 30.815638 205.7875L24.581263 208.1625L24.581263 207.02188L28.175013 205.725Q28.862513 205.475 29.628138 205.27188Q28.893763 205.08438 28.206263 204.83438L24.581263 203.50626L24.581263 202.45938L30.909388 204.81876Q31.925013 205.20938 32.315636 205.4125Q32.846886 205.69376 33.08126 206.06876Q33.33126 206.42813 33.33126 206.92813Q33.33126 207.225 33.190636 207.6ZM30.800013 202.2875L29.596888 202.2875L29.596888 201.08438L30.800013 201.08438Q31.456263 201.08438 31.862513 201.31876Q32.284386 201.55313 32.503136 202.05313L32.05001 202.35Q31.909388 202.02188 31.612513 201.86563Q31.331263 201.70938 30.800013 201.67813L30.800013 202.2875ZM30.800013 196.55313L24.581263 196.55313L24.581263 195.61563L25.456263 195.61563Q24.440638 194.92813 24.440638 193.63126Q24.440638 193.06876 24.643763 192.6Q24.846888 192.11563 25.175013 191.88126Q25.503138 191.64688 25.940638 191.55313Q26.237513 191.50626 26.971888 191.50626L30.800013 191.50626L30.800013 192.55313L27.018763 192.55313Q26.362513 192.55313 26.050013 192.67813Q25.737513 192.80313 25.550013 193.11563Q25.346888 193.42813 25.346888 193.85Q25.346888 194.52188 25.784388 195.02188Q26.206263 195.50626 27.393763 195.50626L30.800013 195.50626L30.800013 196.55313ZM28.940638 189.975L28.784388 188.94376Q29.409388 188.85 29.737513 188.45938Q30.065638 188.05313 30.065638 187.31876Q30.065638 186.6 29.784388 186.25626Q29.487513 185.89688 29.081263 185.89688Q28.721888 185.89688 28.518763 186.20938Q28.378138 186.42813 28.159388 187.2875Q27.862513 188.44376 27.659388 188.89688Q27.440638 189.33438 27.065638 189.56876Q26.690638 189.80313 26.221888 189.80313Q25.815638 189.80313 25.456263 189.61563Q25.096888 189.42813 24.862513 189.1Q24.690638 188.85 24.565638 188.42813Q24.440638 188.00626 24.440638 187.50626Q24.440638 186.7875 24.659388 186.24063Q24.862513 185.67813 25.221888 185.4125Q25.581263 185.14688 26.175013 185.05313L26.315638 186.08438Q25.846888 186.14688 25.581263 186.49063Q25.300013 186.81876 25.300013 187.44376Q25.300013 188.1625 25.550013 188.475Q25.784388 188.7875 26.112513 188.7875Q26.315638 188.7875 26.471888 188.6625Q26.643763 188.52188 26.753138 188.25626Q26.815638 188.1 27.018763 187.31876Q27.331263 186.19376 27.518763 185.75626Q27.706263 185.31876 28.065638 185.06876Q28.425013 184.81876 28.971888 184.81876Q29.503138 184.81876 29.971888 185.13126Q30.425013 185.42813 30.690638 186.00626Q30.940638 186.58438 30.940638 187.31876Q30.940638 188.5375 30.440638 189.17813Q29.925013 189.80313 28.940638 189.975Z" fill-rule="nonzero"/><path fill="#000000" d="M66.3 323.96564Q66.3 322.4344 66.6125 321.5125Q66.925 320.575 67.53438 320.075Q68.15938 319.575 69.09688 319.575Q69.78438 319.575 70.3 319.85626Q70.83125 320.1375 71.175 320.66876Q71.51875 321.1844 71.70625 321.9344Q71.89375 322.6844 71.89375 323.96564Q71.89375 325.48126 71.58125 326.40314Q71.28438 327.325 70.65938 327.84064Q70.05 328.34064 69.09688 328.34064Q67.8625 328.34064 67.14375 327.45Q66.3 326.3875 66.3 323.96564ZM67.37813 323.96564Q67.37813 326.075 67.87813 326.77814Q68.37813 327.48126 69.09688 327.48126Q69.83125 327.48126 70.31563 326.77814Q70.81563 326.075 70.81563 323.96564Q70.81563 321.84064 70.31563 321.15314Q69.83125 320.45 69.08125 320.45Q68.3625 320.45 67.925 321.0594Q67.37813 321.84064 67.37813 323.96564Z" fill-rule="nonzero"/><path fill="#000000" d="M59.3 256.33237L60.409374 256.23862Q60.534374 257.05112 60.971874 257.45737Q61.425 257.86362 62.065624 257.86362Q62.815624 257.86362 63.346874 257.2855Q63.878124 256.70737 63.878124 255.76987Q63.878124 254.86362 63.3625 254.34799Q62.8625 253.81674 62.034374 253.81674Q61.534374 253.81674 61.1125 254.05112Q60.70625 254.28549 60.471874 254.64487L59.4875 254.51987L60.315624 250.11362L64.59688 250.11362L64.59688 251.11362L61.159374 251.11362L60.70625 253.42612Q61.471874 252.87924 62.315624 252.87924Q63.440624 252.87924 64.20625 253.66049Q64.9875 254.44174 64.9875 255.67612Q64.9875 256.83237 64.31563 257.69174Q63.4875 258.723 62.065624 258.723Q60.89375 258.723 60.14375 258.06674Q59.409374 257.4105 59.3 256.33237ZM66.3 254.34799Q66.3 252.81674 66.6125 251.89487Q66.925 250.95737 67.53438 250.45737Q68.15938 249.95737 69.09688 249.95737Q69.78438 249.95737 70.3 250.23862Q70.83125 250.51987 71.175 251.05112Q71.51875 251.56674 71.70625 252.31674Q71.89375 253.06674 71.89375 254.34799Q71.89375 255.86362 71.58125 256.7855Q71.28438 257.70737 70.65938 258.223Q70.05 258.723 69.09688 258.723Q67.8625 258.723 67.14375 257.83237Q66.3 256.76987 66.3 254.34799ZM67.37813 254.34799Q67.37813 256.45737 67.87813 257.1605Q68.37813 257.86362 69.09688 257.86362Q69.83125 257.86362 70.31563 257.1605Q70.81563 256.45737 70.81563 254.34799Q70.81563 252.22299 70.31563 251.53549Q69.83125 250.83237 69.08125 250.83237Q68.3625 250.83237 67.925 251.44174Q67.37813 252.22299 67.37813 254.34799Z" fill-rule="nonzero"/><path fill="#000000" d="M56.26875 188.9647L55.221874 188.9647L55.221874 182.24596Q54.83125 182.60533 54.20625 182.98033Q53.596874 183.3397 53.1125 183.51158L53.1125 182.49596Q53.9875 182.07408 54.64375 181.49596Q55.315624 180.9022 55.596874 180.3397L56.26875 180.3397L56.26875 188.9647ZM59.3 184.73033Q59.3 183.19908 59.6125 182.2772Q59.925 181.3397 60.534374 180.8397Q61.159374 180.3397 62.096874 180.3397Q62.784374 180.3397 63.3 180.62096Q63.83125 180.9022 64.175 181.43346Q64.51875 181.94908 64.70625 182.69908Q64.89375 183.44908 64.89375 184.73033Q64.89375 186.24596 64.58125 187.16783Q64.28438 188.0897 63.659374 188.60533Q63.05 189.10533 62.096874 189.10533Q60.8625 189.10533 60.14375 188.2147Q59.3 187.1522 59.3 184.73033ZM60.378124 184.73033Q60.378124 186.8397 60.878124 187.54283Q61.378124 188.24596 62.096874 188.24596Q62.83125 188.24596 63.315624 187.54283Q63.815624 186.8397 63.815624 184.73033Q63.815624 182.60533 63.315624 181.91783Q62.83125 181.2147 62.08125 181.2147Q61.3625 181.2147 60.925 181.82408Q60.378124 182.60533 60.378124 184.73033ZM66.3 184.73033Q66.3 183.19908 66.6125 182.2772Q66.925 181.3397 67.53438 180.8397Q68.15938 180.3397 69.09688 180.3397Q69.78438 180.3397 70.3 180.62096Q70.83125 180.9022 71.175 181.43346Q71.51875 181.94908 71.70625 182.69908Q71.89375 183.44908 71.89375 184.73033Q71.89375 186.24596 71.58125 187.16783Q71.28438 188.0897 70.65938 188.60533Q70.05 189.10533 69.09688 189.10533Q67.8625 189.10533 67.14375 188.2147Q66.3 187.1522 66.3 184.73033ZM67.37813 184.73033Q67.37813 186.8397 67.87813 187.54283Q68.37813 188.24596 69.09688 188.24596Q69.83125 188.24596 70.31563 187.54283Q70.81563 186.8397 70.81563 184.73033Q70.81563 182.60533 70.31563 181.91783Q69.83125 181.2147 69.08125 181.2147Q68.3625 181.2147 67.925 181.82408Q67.37813 182.60533 67.37813 184.73033Z" fill-rule="nonzero"/><path fill="#000000" d="M56.26875 119.34706L55.221874 119.34706L55.221874 112.62831Q54.83125 112.987686 54.20625 113.362686Q53.596874 113.72206 53.1125 113.893936L53.1125 112.87831Q53.9875 112.456436 54.64375 111.87831Q55.315624 111.28456 55.596874 110.72206L56.26875 110.72206L56.26875 119.34706ZM59.3 117.09706L60.409374 117.00331Q60.534374 117.81581 60.971874 118.22206Q61.425 118.62831 62.065624 118.62831Q62.815624 118.62831 63.346874 118.050186Q63.878124 117.47206 63.878124 116.53456Q63.878124 115.62831 63.3625 115.112686Q62.8625 114.581436 62.034374 114.581436Q61.534374 114.581436 61.1125 114.81581Q60.70625 115.050186 60.471874 115.40956L59.4875 115.28456L60.315624 110.87831L64.59688 110.87831L64.59688 111.87831L61.159374 111.87831L60.70625 114.19081Q61.471874 113.643936 62.315624 113.643936Q63.440624 113.643936 64.20625 114.425186Q64.9875 115.206436 64.9875 116.44081Q64.9875 117.59706 64.31563 118.456436Q63.4875 119.487686 62.065624 119.487686Q60.89375 119.487686 60.14375 118.831436Q59.409374 118.175186 59.3 117.09706ZM66.3 115.112686Q66.3 113.581436 66.6125 112.65956Q66.925 111.72206 67.53438 111.22206Q68.15938 110.72206 69.09688 110.72206Q69.78438 110.72206 70.3 111.00331Q70.83125 111.28456 71.175 111.81581Q71.51875 112.331436 71.70625 113.081436Q71.89375 113.831436 71.89375 115.112686Q71.89375 116.62831 71.58125 117.550186Q71.28438 118.47206 70.65938 118.987686Q70.05 119.487686 69.09688 119.487686Q67.8625 119.487686 67.14375 118.59706Q66.3 117.53456 66.3 115.112686ZM67.37813 115.112686Q67.37813 117.22206 67.87813 117.925186Q68.37813 118.62831 69.09688 118.62831Q69.83125 118.62831 70.31563 117.925186Q70.81563 117.22206 70.81563 115.112686Q70.81563 112.987686 70.31563 112.300186Q69.83125 111.59706 69.08125 111.59706Q68.3625 111.59706 67.925 112.206436Q67.37813 112.987686 67.37813 115.112686Z" fill-rule="nonzero"/><path fill="#000000" d="M179.78073 340.1844L179.78073 341.2L174.09323 341.2Q174.09323 340.825 174.21823 340.46564Q174.43698 339.8875 174.90573 339.325Q175.3901 338.7625 176.29636 338.02814Q177.7026 336.8719 178.18698 336.2Q178.68698 335.52814 178.68698 334.9344Q178.68698 334.3094 178.23386 333.8875Q177.78073 333.45 177.06198 333.45Q176.29636 333.45 175.84323 333.90314Q175.3901 334.35626 175.37448 335.16876L174.29636 335.0594Q174.40573 333.84064 175.12448 333.21564Q175.85886 332.575 177.09323 332.575Q178.3276 332.575 179.04636 333.2625Q179.7651 333.95 179.7651 334.96564Q179.7651 335.48126 179.54636 335.98126Q179.34323 336.46564 178.84323 337.02814Q178.35886 337.575 177.23386 338.52814Q176.28073 339.325 175.99948 339.6219Q175.73386 339.90314 175.56198 340.1844L179.78073 340.1844ZM181.23386 338.95L182.34323 338.85626Q182.46823 339.66876 182.90573 340.075Q183.35886 340.48126 183.99948 340.48126Q184.74948 340.48126 185.28073 339.90314Q185.81198 339.325 185.81198 338.3875Q185.81198 337.48126 185.29636 336.96564Q184.79636 336.4344 183.96823 336.4344Q183.46823 336.4344 183.04636 336.66876Q182.6401 336.90314 182.40573 337.2625L181.42136 337.1375L182.24948 332.73126L186.53073 332.73126L186.53073 333.73126L183.09323 333.73126L182.6401 336.04376Q183.40573 335.4969 184.24948 335.4969Q185.37448 335.4969 186.1401 336.27814Q186.92136 337.0594 186.92136 338.29376Q186.92136 339.45 186.24948 340.3094Q185.42136 341.34064 183.99948 341.34064Q182.8276 341.34064 182.0776 340.6844Q181.34323 340.02814 181.23386 338.95Z" fill-rule="nonzero"/><path fill="#000000" d="M280.41495 338.95L281.52432 338.85626Q281.64932 339.66876 282.08682 340.075Q282.53995 340.48126 283.18057 340.48126Q283.93057 340.48126 284.46182 339.90314Q284.99307 339.325 284.99307 338.3875Q284.99307 337.48126 284.47745 336.96564Q283.97745 336.4344 283.14932 336.4344Q282.64932 336.4344 282.22745 336.66876Q281.8212 336.90314 281.58682 337.2625L280.60245 337.1375L281.43057 332.73126L285.71182 332.73126L285.71182 333.73126L282.27432 333.73126L281.8212 336.04376Q282.58682 335.4969 283.43057 335.4969Q284.55557 335.4969 285.3212 336.27814Q286.10245 337.0594 286.10245 338.29376Q286.10245 339.45 285.43057 340.3094Q284.60245 341.34064 283.18057 341.34064Q282.0087 341.34064 281.2587 340.6844Q280.52432 340.02814 280.41495 338.95ZM287.41495 336.96564Q287.41495 335.4344 287.72745 334.5125Q288.03995 333.575 288.64932 333.075Q289.27432 332.575 290.21182 332.575Q290.89932 332.575 291.41495 332.85626Q291.9462 333.1375 292.28995 333.66876Q292.6337 334.1844 292.8212 334.9344Q293.0087 335.6844 293.0087 336.96564Q293.0087 338.48126 292.6962 339.40314Q292.39932 340.325 291.77432 340.84064Q291.16495 341.34064 290.21182 341.34064Q288.97745 341.34064 288.2587 340.45Q287.41495 339.3875 287.41495 336.96564ZM288.49307 336.96564Q288.49307 339.075 288.99307 339.77814Q289.49307 340.48126 290.21182 340.48126Q290.9462 340.48126 291.43057 339.77814Q291.93057 339.075 291.93057 336.96564Q291.93057 334.84064 291.43057 334.15314Q290.9462 333.45 290.1962 333.45Q289.47745 333.45 289.03995 334.0594Q288.49307 334.84064 288.49307 336.96564Z" fill-rule="nonzero"/><path fill="#000000" d="M386.65857 333.73126L386.65857 332.71564L392.22107 332.71564L392.22107 333.54376Q391.40857 334.41876 390.59607 335.8719Q389.7992 337.3094 389.3617 338.84064Q389.03357 339.91876 388.95544 341.2L387.8617 341.2Q387.87732 340.1844 388.25232 338.7469Q388.64294 337.3094 389.34607 335.98126Q390.06482 334.65314 390.87732 333.73126L386.65857 333.73126ZM393.59607 338.95L394.70544 338.85626Q394.83044 339.66876 395.26794 340.075Q395.72107 340.48126 396.3617 340.48126Q397.1117 340.48126 397.64294 339.90314Q398.1742 339.325 398.1742 338.3875Q398.1742 337.48126 397.65857 336.96564Q397.15857 336.4344 396.33044 336.4344Q395.83044 336.4344 395.40857 336.66876Q395.00232 336.90314 394.76794 337.2625L393.78357 337.1375L394.6117 332.73126L398.89294 332.73126L398.89294 333.73126L395.45544 333.73126L395.00232 336.04376Q395.76794 335.4969 396.6117 335.4969Q397.7367 335.4969 398.50232 336.27814Q399.28357 337.0594 399.28357 338.29376Q399.28357 339.45 398.6117 340.3094Q397.78357 341.34064 396.3617 341.34064Q395.18982 341.34064 394.43982 340.6844Q393.70544 340.02814 393.59607 338.95Z" fill-rule="nonzero"/><path fill="#000000" d="M493.2459 341.2L492.19904 341.2L492.19904 334.48126Q491.8084 334.84064 491.1834 335.21564Q490.57404 335.575 490.08966 335.7469L490.08966 334.73126Q490.96466 334.3094 491.6209 333.73126Q492.2928 333.1375 492.57404 332.575L493.2459 332.575L493.2459 341.2ZM496.27716 336.96564Q496.27716 335.4344 496.58966 334.5125Q496.90216 333.575 497.51154 333.075Q498.13654 332.575 499.07404 332.575Q499.76154 332.575 500.27716 332.85626Q500.8084 333.1375 501.15216 333.66876Q501.4959 334.1844 501.6834 334.9344Q501.8709 335.6844 501.8709 336.96564Q501.8709 338.48126 501.5584 339.40314Q501.26154 340.325 500.63654 340.84064Q500.02716 341.34064 499.07404 341.34064Q497.83966 341.34064 497.1209 340.45Q496.27716 339.3875 496.27716 336.96564ZM497.3553 336.96564Q497.3553 339.075 497.8553 339.77814Q498.3553 340.48126 499.07404 340.48126Q499.8084 340.48126 500.2928 339.77814Q500.7928 339.075 500.7928 336.96564Q500.7928 334.84064 500.2928 334.15314Q499.8084 333.45 499.0584 333.45Q498.33966 333.45 497.90216 334.0594Q497.3553 334.84064 497.3553 336.96564ZM503.27716 336.96564Q503.27716 335.4344 503.58966 334.5125Q503.90216 333.575 504.51154 333.075Q505.13654 332.575 506.07404 332.575Q506.76154 332.575 507.27716 332.85626Q507.8084 333.1375 508.15216 333.66876Q508.4959 334.1844 508.6834 334.9344Q508.8709 335.6844 508.8709 336.96564Q508.8709 338.48126 508.5584 339.40314Q508.26154 340.325 507.63654 340.84064Q507.02716 341.34064 506.07404 341.34064Q504.83966 341.34064 504.1209 340.45Q503.27716 339.3875 503.27716 336.96564ZM504.3553 336.96564Q504.3553 339.075 504.8553 339.77814Q505.3553 340.48126 506.07404 340.48126Q506.8084 340.48126 507.2928 339.77814Q507.7928 339.075 507.7928 336.96564Q507.7928 334.84064 507.2928 334.15314Q506.8084 333.45 506.0584 333.45Q505.33966 333.45 504.90216 334.0594Q504.3553 334.84064 504.3553 336.96564Z" fill-rule="nonzero"/><path fill="#000000" d="M599.427 341.2L598.3801 341.2L598.3801 334.48126Q597.9895 334.84064 597.3645 335.21564Q596.7551 335.575 596.27075 335.7469L596.27075 334.73126Q597.14575 334.3094 597.802 333.73126Q598.4739 333.1375 598.7551 332.575L599.427 332.575L599.427 341.2ZM608.0051 340.1844L608.0051 341.2L602.3176 341.2Q602.3176 340.825 602.4426 340.46564Q602.6614 339.8875 603.1301 339.325Q603.6145 338.7625 604.52075 338.02814Q605.927 336.8719 606.4114 336.2Q606.9114 335.52814 606.9114 334.9344Q606.9114 334.3094 606.45825 333.8875Q606.0051 333.45 605.2864 333.45Q604.52075 333.45 604.0676 333.90314Q603.6145 334.35626 603.5989 335.16876L602.52075 335.0594Q602.6301 333.84064 603.3489 333.21564Q604.08325 332.575 605.3176 332.575Q606.552 332.575 607.27075 333.2625Q607.9895 333.95 607.9895 334.96564Q607.9895 335.48126 607.77075 335.98126Q607.5676 336.46564 607.0676 337.02814Q606.58325 337.575 605.45825 338.52814Q604.5051 339.325 604.2239 339.6219Q603.95825 339.90314 603.7864 340.1844L608.0051 340.1844ZM609.45825 338.95L610.5676 338.85626Q610.6926 339.66876 611.1301 340.075Q611.58325 340.48126 612.2239 340.48126Q612.9739 340.48126 613.5051 339.90314Q614.0364 339.325 614.0364 338.3875Q614.0364 337.48126 613.52075 336.96564Q613.02075 336.4344 612.1926 336.4344Q611.6926 336.4344 611.27075 336.66876Q610.8645 336.90314 610.6301 337.2625L609.64575 337.1375L610.4739 332.73126L614.7551 332.73126L614.7551 333.73126L611.3176 333.73126L610.8645 336.04376Q611.6301 335.4969 612.4739 335.4969Q613.5989 335.4969 614.3645 336.27814Q615.14575 337.0594 615.14575 338.29376Q615.14575 339.45 614.4739 340.3094Q613.64575 341.34064 612.2239 341.34064Q611.052 341.34064 610.302 340.6844Q609.5676 340.02814 609.45825 338.95Z" fill-rule="nonzero"/><path fill="#999999" d="M19.8625 64.3L23.7375 59.081253L20.315624 54.284378L21.89375 54.284378L23.721874 56.846878Q24.284374 57.643753 24.51875 58.081253Q24.8625 57.534378 25.315624 56.940628L27.33125 54.284378L28.76875 54.284378L25.253124 59.003128L29.05 64.3L27.409374 64.3L24.89375 60.721878Q24.675 60.409378 24.45625 60.050003Q24.1125 60.596878 23.971874 60.800003L21.45625 64.3L19.8625 64.3ZM33.690624 61.956253L34.971874 62.112503Q34.659374 63.237503 33.846874 63.862503Q33.034374 64.47188 31.76875 64.47188Q30.175 64.47188 29.2375 63.487503Q28.315624 62.503128 28.315624 60.737503Q28.315624 58.893753 29.253124 57.893753Q30.20625 56.878128 31.70625 56.878128Q33.159374 56.878128 34.08125 57.878128Q35.003124 58.862503 35.003124 60.659378Q35.003124 60.768753 35.003124 60.987503L29.58125 60.987503Q29.659374 62.175003 30.253124 62.815628Q30.8625 63.456253 31.784374 63.456253Q32.45625 63.456253 32.925 63.096878Q33.409374 62.737503 33.690624 61.956253ZM29.659374 59.971878L33.70625 59.971878Q33.628124 59.050003 33.2375 58.596878Q32.659374 57.893753 31.721874 57.893753Q30.8625 57.893753 30.284374 58.456253Q29.721874 59.018753 29.659374 59.971878ZM36.26875 60.675003Q36.26875 58.659378 37.39375 57.675003Q38.315624 56.878128 39.675 56.878128Q41.159374 56.878128 42.1125 57.862503Q43.065624 58.831253 43.065624 60.565628Q43.065624 61.971878 42.64375 62.784378Q42.221874 63.581253 41.409374 64.03438Q40.6125 64.47188 39.675 64.47188Q38.14375 64.47188 37.20625 63.487503Q36.26875 62.503128 36.26875 60.675003ZM37.534374 60.675003Q37.534374 62.065628 38.14375 62.768753Q38.753124 63.456253 39.675 63.456253Q40.58125 63.456253 41.190624 62.753128Q41.8 62.050003 41.8 60.628128Q41.8 59.284378 41.190624 58.596878Q40.58125 57.893753 39.675 57.893753Q38.753124 57.893753 38.14375 58.581253Q37.534374 59.268753 37.534374 60.675003ZM44.721874 64.3L44.721874 57.034378L45.83125 57.034378L45.83125 58.065628Q46.628124 56.878128 48.14375 56.878128Q48.8 56.878128 49.346874 57.112503Q49.89375 57.346878 50.159374 57.737503Q50.440624 58.112503 50.55 58.643753Q50.628124 58.987503 50.628124 59.831253L50.628124 64.3L49.39375 64.3L49.39375 59.878128Q49.39375 59.128128 49.253124 58.768753Q49.1125 58.393753 48.7375 58.175003Q48.378124 57.940628 47.878124 57.940628Q47.096874 57.940628 46.51875 58.440628Q45.95625 58.940628 45.95625 60.331253L45.95625 64.3L44.721874 64.3ZM56.878124 64.3L56.878124 54.284378L60.659374 54.284378Q61.659374 54.284378 62.190624 54.378128Q62.925 54.503128 63.425 54.846878Q63.925 55.190628 64.22188 55.815628Q64.53438 56.425003 64.53438 57.175003Q64.53438 58.456253 63.721874 59.346878Q62.909374 60.221878 60.784374 60.221878L58.20625 60.221878L58.20625 64.3L56.878124 64.3ZM58.20625 59.050003L60.8 59.050003Q62.08125 59.050003 62.6125 58.565628Q63.159374 58.081253 63.159374 57.221878Q63.159374 56.581253 62.846874 56.143753Q62.534374 55.690628 62.003124 55.550003Q61.675 55.456253 60.76875 55.456253L58.20625 55.456253L58.20625 59.050003ZM65.69063 64.3L65.69063 54.284378L66.925 54.284378L66.925 64.3L65.69063 64.3ZM73.45625 63.409378Q72.78438 63.987503 72.14375 64.2375Q71.51875 64.47188 70.78438 64.47188Q69.59688 64.47188 68.94063 63.893753Q68.3 63.300003 68.3 62.378128Q68.3 61.846878 68.53438 61.409378Q68.78438 60.971878 69.175 60.706253Q69.58125 60.440628 70.06563 60.300003Q70.425 60.206253 71.15938 60.112503Q72.65938 59.940628 73.3625 59.690628Q73.3625 59.440628 73.3625 59.378128Q73.3625 58.612503 73.01875 58.315628Q72.55 57.893753 71.6125 57.893753Q70.75313 57.893753 70.33125 58.206253Q69.925 58.503128 69.72188 59.268753L68.51875 59.112503Q68.675 58.331253 69.05 57.862503Q69.44063 57.393753 70.14375 57.143753Q70.8625 56.878128 71.8 56.878128Q72.72188 56.878128 73.3 57.096878Q73.87813 57.315628 74.14375 57.643753Q74.425 57.971878 74.53438 58.487503Q74.59688 58.800003 74.59688 59.612503L74.59688 61.253128Q74.59688 62.971878 74.675 63.425003Q74.75313 63.878128 74.9875 64.3L73.70625 64.3Q73.51875 63.909378 73.45625 63.409378ZM73.3625 60.659378Q72.69063 60.925003 71.34688 61.128128Q70.59688 61.237503 70.26875 61.378128Q69.95625 61.503128 69.78438 61.768753Q69.6125 62.034378 69.6125 62.346878Q69.6125 62.846878 69.9875 63.175003Q70.3625 63.503128 71.08125 63.503128Q71.8 63.503128 72.34688 63.190628Q72.89375 62.878128 73.15938 62.331253Q73.3625 61.925003 73.3625 61.112503L73.3625 60.659378ZM79.40938 63.206253L79.58125 64.28438Q79.06563 64.39375 78.65938 64.39375Q77.9875 64.39375 77.6125 64.19063Q77.25313 63.971878 77.09688 63.628128Q76.95625 63.284378 76.95625 62.175003L76.95625 58.003128L76.05 58.003128L76.05 57.034378L76.95625 57.034378L76.95625 55.237503L78.175 54.503128L78.175 57.034378L79.40938 57.034378L79.40938 58.003128L78.175 58.003128L78.175 62.237503Q78.175 62.768753 78.2375 62.925003Q78.3 63.065628 78.44063 63.159378Q78.59688 63.253128 78.8625 63.253128Q79.08125 63.253128 79.40938 63.206253ZM80.7375 55.690628L80.7375 54.284378L81.95625 54.284378L81.95625 55.690628L80.7375 55.690628ZM80.7375 64.3L80.7375 57.034378L81.95625 57.034378L81.95625 64.3L80.7375 64.3ZM83.72188 64.3L83.72188 57.034378L84.83125 57.034378L84.83125 58.065628Q85.62813 56.878128 87.14375 56.878128Q87.8 56.878128 88.34688 57.112503Q88.89375 57.346878 89.15938 57.737503Q89.44063 58.112503 89.55 58.643753Q89.62813 58.987503 89.62813 59.831253L89.62813 64.3L88.39375 64.3L88.39375 59.878128Q88.39375 59.128128 88.25313 58.768753Q88.1125 58.393753 87.7375 58.175003Q87.37813 57.940628 86.87813 57.940628Q86.09688 57.940628 85.51875 58.440628Q84.95625 58.940628 84.95625 60.331253L84.95625 64.3L83.72188 64.3ZM96.4875 64.3L96.4875 63.237503Q95.62813 64.47188 94.175 64.47188Q93.53438 64.47188 92.97188 64.22188Q92.425 63.971878 92.14375 63.596878Q91.87813 63.221878 91.76875 62.690628Q91.69063 62.331253 91.69063 61.534378L91.69063 57.034378L92.925 57.034378L92.925 61.065628Q92.925 62.034378 93.00313 62.362503Q93.1125 62.846878 93.4875 63.128128Q93.8625 63.409378 94.425 63.409378Q94.97188 63.409378 95.45625 63.128128Q95.94063 62.831253 96.14375 62.346878Q96.34688 61.862503 96.34688 60.925003L96.34688 57.034378L97.58125 57.034378L97.58125 64.3L96.4875 64.3ZM99.72188 64.3L99.72188 57.034378L100.83125 57.034378L100.83125 58.065628Q101.15938 57.518753 101.72188 57.206253Q102.3 56.878128 103.01875 56.878128Q103.83125 56.878128 104.34688 57.221878Q104.8625 57.550003 105.08125 58.143753Q105.94063 56.878128 107.31563 56.878128Q108.39375 56.878128 108.97188 57.471878Q109.56563 58.065628 109.56563 59.315628L109.56563 64.3L108.33125 64.3L108.33125 59.721878Q108.33125 58.987503 108.20625 58.659378Q108.09688 58.331253 107.78438 58.143753Q107.47188 57.940628 107.05 57.940628Q106.28438 57.940628 105.76875 58.456253Q105.26875 58.956253 105.26875 60.081253L105.26875 64.3L104.03438 64.3L104.03438 59.581253Q104.03438 58.768753 103.7375 58.362503Q103.44063 57.940628 102.75313 57.940628Q102.2375 57.940628 101.78438 58.221878Q101.34688 58.487503 101.14375 59.018753Q100.95625 59.534378 100.95625 60.534378L100.95625 64.3L99.72188 64.3ZM116.26875 58.862503Q115.50313 58.581253 115.12813 58.065628Q114.76875 57.550003 114.76875 56.815628Q114.76875 55.721878 115.55 54.987503Q116.34688 54.237503 117.64375 54.237503Q118.95625 54.237503 119.75313 55.003128Q120.56563 55.768753 120.56563 56.862503Q120.56563 57.550003 120.19063 58.065628Q119.83125 58.581253 119.08125 58.862503Q120.00313 59.159378 120.4875 59.831253Q120.97188 60.503128 120.97188 61.440628Q120.97188 62.721878 120.06563 63.596878Q119.15938 64.47188 117.675 64.47188Q116.19063 64.47188 115.26875 63.596878Q114.3625 62.706253 114.3625 61.393753Q114.3625 60.425003 114.8625 59.768753Q115.3625 59.096878 116.26875 58.862503ZM116.03438 56.784378Q116.03438 57.487503 116.4875 57.940628Q116.94063 58.393753 117.675 58.393753Q118.39375 58.393753 118.84688 57.956253Q119.3 57.503128 119.3 56.846878Q119.3 56.175003 118.83125 55.721878Q118.3625 55.253128 117.65938 55.253128Q116.95625 55.253128 116.4875 55.706253Q116.03438 56.143753 116.03438 56.784378ZM115.62813 61.409378Q115.62813 61.940628 115.87813 62.440628Q116.12813 62.925003 116.6125 63.190628Q117.1125 63.456253 117.69063 63.456253Q118.56563 63.456253 119.12813 62.893753Q119.70625 62.331253 119.70625 61.456253Q119.70625 60.565628 119.1125 59.987503Q118.53438 59.393753 117.64375 59.393753Q116.76875 59.393753 116.19063 59.971878Q115.62813 60.550003 115.62813 61.409378ZM128.84688 63.112503L128.84688 64.3L122.22188 64.3Q122.20625 63.862503 122.3625 63.440628Q122.62813 62.768753 123.175 62.112503Q123.7375 61.456253 124.78438 60.596878Q126.425 59.253128 126.9875 58.471878Q127.56563 57.690628 127.56563 56.987503Q127.56563 56.253128 127.03438 55.753128Q126.51875 55.253128 125.69063 55.253128Q124.8 55.253128 124.25313 55.784378Q123.72188 56.315628 123.72188 57.268753L122.45625 57.128128Q122.58125 55.721878 123.425 54.987503Q124.28438 54.237503 125.70625 54.237503Q127.15938 54.237503 127.9875 55.034378Q128.83125 55.831253 128.83125 57.018753Q128.83125 57.628128 128.58125 58.206253Q128.34688 58.784378 127.76875 59.425003Q127.20625 60.065628 125.87813 61.190628Q124.76875 62.112503 124.45625 62.456253Q124.14375 62.784378 123.94063 63.112503L128.84688 63.112503ZM130.45625 55.596878L130.45625 54.409378L136.95625 54.409378L136.95625 55.362503Q135.9875 56.378128 135.05 58.065628Q134.1125 59.753128 133.59688 61.550003Q133.2375 62.800003 133.12813 64.3L131.8625 64.3Q131.87813 63.112503 132.31563 61.440628Q132.76875 59.768753 133.59688 58.221878Q134.44063 56.659378 135.37813 55.596878L130.45625 55.596878ZM138.37813 61.675003L139.675 61.565628Q139.81563 62.503128 140.33125 62.987503Q140.8625 63.456253 141.59688 63.456253Q142.4875 63.456253 143.09688 62.784378Q143.72188 62.112503 143.72188 61.018753Q143.72188 59.956253 143.12813 59.346878Q142.53438 58.737503 141.58125 58.737503Q140.9875 58.737503 140.50313 59.018753Q140.03438 59.284378 139.75313 59.706253L138.59688 59.565628L139.56563 54.409378L144.55 54.409378L144.55 55.596878L140.55 55.596878L140.01875 58.284378Q140.925 57.659378 141.90938 57.659378Q143.22188 57.659378 144.1125 58.565628Q145.01875 59.471878 145.01875 60.909378Q145.01875 62.268753 144.2375 63.253128Q143.26875 64.47188 141.59688 64.47188Q140.2375 64.47188 139.3625 63.706253Q138.50313 62.940628 138.37813 61.675003ZM154.03438 60.784378L155.3625 61.128128Q154.94063 62.753128 153.84688 63.612503Q152.76875 64.47188 151.20625 64.47188Q149.58125 64.47188 148.56563 63.815628Q147.55 63.143753 147.01875 61.893753Q146.50313 60.643753 146.50313 59.206253Q146.50313 57.643753 147.09688 56.487503Q147.69063 55.315628 148.8 54.721878Q149.90938 54.112503 151.22188 54.112503Q152.7375 54.112503 153.75313 54.878128Q154.78438 55.643753 155.19063 57.018753L153.87813 57.331253Q153.53438 56.237503 152.8625 55.737503Q152.20625 55.237503 151.20625 55.237503Q150.05 55.237503 149.26875 55.800003Q148.4875 56.346878 148.175 57.284378Q147.8625 58.221878 147.8625 59.206253Q147.8625 60.487503 148.2375 61.440628Q148.6125 62.393753 149.39375 62.862503Q150.175 63.331253 151.09688 63.331253Q152.20625 63.331253 152.97188 62.690628Q153.75313 62.050003 154.03438 60.784378ZM156.83125 64.3L156.83125 54.284378L158.15938 54.284378L158.15938 63.112503L163.08125 63.112503L163.08125 64.3L156.83125 64.3ZM176.03438 60.784378L177.3625 61.128128Q176.94063 62.753128 175.84688 63.612503Q174.76875 64.47188 173.20625 64.47188Q171.58125 64.47188 170.56563 63.815628Q169.55 63.143753 169.01875 61.893753Q168.50313 60.643753 168.50313 59.206253Q168.50313 57.643753 169.09688 56.487503Q169.69063 55.315628 170.8 54.721878Q171.90938 54.112503 173.22188 54.112503Q174.7375 54.112503 175.75313 54.878128Q176.78438 55.643753 177.19063 57.018753L175.87813 57.331253Q175.53438 56.237503 174.8625 55.737503Q174.20625 55.237503 173.20625 55.237503Q172.05 55.237503 171.26875 55.800003Q170.4875 56.346878 170.175 57.284378Q169.8625 58.221878 169.8625 59.206253Q169.8625 60.487503 170.2375 61.440628Q170.6125 62.393753 171.39375 62.862503Q172.175 63.331253 173.09688 63.331253Q174.20625 63.331253 174.97188 62.690628Q175.75313 62.050003 176.03438 60.784378ZM178.87813 64.3L178.87813 54.284378L182.65938 54.284378Q183.65938 54.284378 184.19063 54.378128Q184.925 54.503128 185.425 54.846878Q185.925 55.190628 186.22188 55.815628Q186.53438 56.425003 186.53438 57.175003Q186.53438 58.456253 185.72188 59.346878Q184.90938 60.221878 182.78438 60.221878L180.20625 60.221878L180.20625 64.3L178.87813 64.3ZM180.20625 59.050003L182.8 59.050003Q184.08125 59.050003 184.6125 58.565628Q185.15938 58.081253 185.15938 57.221878Q185.15938 56.581253 184.84688 56.143753Q184.53438 55.690628 184.00313 55.550003Q183.675 55.456253 182.76875 55.456253L180.20625 55.456253L180.20625 59.050003ZM194.45625 54.284378L195.78438 54.284378L195.78438 60.065628Q195.78438 61.581253 195.44063 62.471878Q195.09688 63.362503 194.20625 63.925003Q193.31563 64.47188 191.8625 64.47188Q190.45625 64.47188 189.55 63.987503Q188.65938 63.503128 188.26875 62.581253Q187.89375 61.659378 187.89375 60.065628L187.89375 54.284378L189.22188 54.284378L189.22188 60.065628Q189.22188 61.362503 189.45625 61.987503Q189.70625 62.596878 190.3 62.940628Q190.89375 63.268753 191.75313 63.268753Q193.20625 63.268753 193.83125 62.612503Q194.45625 61.940628 194.45625 60.065628L194.45625 54.284378ZM207.7375 63.190628Q207.3 63.690628 206.7375 64.00313Q206.19063 64.31563 205.64375 64.31563Q205.03438 64.31563 204.45625 63.971878Q203.87813 63.612503 203.51875 62.878128Q203.15938 62.128128 203.15938 61.253128Q203.15938 60.159378 203.72188 59.081253Q204.28438 57.987503 205.09688 57.440628Q205.925 56.893753 206.70625 56.893753Q207.3 56.893753 207.84688 57.206253Q208.39375 57.518753 208.76875 58.143753L209.00313 57.081253L210.2375 57.081253L209.25313 61.675003Q209.05 62.628128 209.05 62.737503Q209.05 62.925003 209.175 63.065628Q209.31563 63.190628 209.51875 63.190628Q209.87813 63.190628 210.47188 62.768753Q211.25313 62.221878 211.70625 61.300003Q212.15938 60.378128 212.15938 59.409378Q212.15938 58.268753 211.56563 57.284378Q210.9875 56.284378 209.83125 55.690628Q208.675 55.096878 207.26875 55.096878Q205.675 55.096878 204.34688 55.846878Q203.03438 56.581253 202.3 57.987503Q201.56563 59.378128 201.56563 60.987503Q201.56563 62.659378 202.3 63.878128Q203.03438 65.08125 204.40938 65.65938Q205.78438 66.2375 207.45625 66.2375Q209.25313 66.2375 210.45625 65.62813Q211.675 65.03438 212.26875 64.175L213.50313 64.175Q213.15938 64.89375 212.3 65.62813Q211.45625 66.37813 210.28438 66.81563Q209.12813 67.25313 207.47188 67.25313Q205.95625 67.25313 204.675 66.8625Q203.39375 66.47188 202.4875 65.69063Q201.59688 64.90938 201.12813 63.878128Q200.56563 62.596878 200.56563 61.096878Q200.56563 59.425003 201.2375 57.909378Q202.08125 56.065628 203.6125 55.081253Q205.14375 54.096878 207.33125 54.096878Q209.03438 54.096878 210.37813 54.800003Q211.72188 55.487503 212.50313 56.862503Q213.175 58.034378 213.175 59.425003Q213.175 61.409378 211.78438 62.940628Q210.53438 64.33125 209.05 64.33125Q208.58125 64.33125 208.28438 64.19063Q208.00313 64.03438 207.8625 63.768753Q207.78438 63.596878 207.7375 63.190628ZM204.425 61.331253Q204.425 62.268753 204.8625 62.800003Q205.31563 63.315628 205.89375 63.315628Q206.26875 63.315628 206.69063 63.081253Q207.12813 62.846878 207.50313 62.393753Q207.89375 61.940628 208.14375 61.253128Q208.39375 60.565628 208.39375 59.862503Q208.39375 58.940628 207.925 58.425003Q207.45625 57.909378 206.8 57.909378Q206.3625 57.909378 205.97188 58.128128Q205.59688 58.346878 205.22188 58.846878Q204.8625 59.331253 204.64375 60.034378Q204.425 60.737503 204.425 61.331253ZM218.39375 61.659378L219.6125 61.487503Q219.83125 62.534378 220.33125 63.003128Q220.84688 63.456253 221.58125 63.456253Q222.45625 63.456253 223.05 62.862503Q223.64375 62.253128 223.64375 61.362503Q223.64375 60.518753 223.08125 59.971878Q222.53438 59.425003 221.69063 59.425003Q221.33125 59.425003 220.81563 59.550003L220.95625 58.471878Q221.08125 58.487503 221.14375 58.487503Q221.94063 58.487503 222.56563 58.081253Q223.19063 57.675003 223.19063 56.815628Q223.19063 56.143753 222.7375 55.706253Q222.28438 55.253128 221.55 55.253128Q220.83125 55.253128 220.34688 55.706253Q219.87813 56.143753 219.7375 57.050003L218.51875 56.831253Q218.7375 55.596878 219.53438 54.925003Q220.33125 54.237503 221.51875 54.237503Q222.34688 54.237503 223.03438 54.596878Q223.72188 54.940628 224.08125 55.550003Q224.45625 56.159378 224.45625 56.846878Q224.45625 57.487503 224.1125 58.018753Q223.76875 58.550003 223.08125 58.878128Q223.97188 59.081253 224.45625 59.721878Q224.95625 60.362503 224.95625 61.346878Q224.95625 62.659378 223.9875 63.565628Q223.03438 64.47188 221.58125 64.47188Q220.25313 64.47188 219.37813 63.690628Q218.51875 62.909378 218.39375 61.659378ZM231.56563 60.362503L231.56563 59.190628L235.81563 59.190628L235.81563 62.909378Q234.83125 63.690628 233.78438 64.08125Q232.75313 64.47188 231.65938 64.47188Q230.19063 64.47188 228.97188 63.846878Q227.76875 63.206253 227.15938 62.018753Q226.55 60.815628 226.55 59.331253Q226.55 57.878128 227.15938 56.612503Q227.76875 55.331253 228.90938 54.721878Q230.06563 54.112503 231.56563 54.112503Q232.64375 54.112503 233.51875 54.471878Q234.40938 54.815628 234.90938 55.440628Q235.40938 56.065628 235.65938 57.081253L234.47188 57.409378Q234.2375 56.643753 233.89375 56.206253Q233.56563 55.768753 232.94063 55.503128Q232.33125 55.237503 231.56563 55.237503Q230.65938 55.237503 229.9875 55.518753Q229.33125 55.800003 228.925 56.253128Q228.51875 56.690628 228.3 57.237503Q227.90938 58.175003 227.90938 59.253128Q227.90938 60.596878 228.3625 61.503128Q228.83125 62.393753 229.70625 62.831253Q230.59688 63.268753 231.59688 63.268753Q232.45625 63.268753 233.26875 62.940628Q234.09688 62.612503 234.51875 62.237503L234.51875 60.362503L231.56563 60.362503ZM237.925 64.3L237.925 54.284378L239.25313 54.284378L239.25313 58.393753L244.45625 58.393753L244.45625 54.284378L245.78438 54.284378L245.78438 64.3L244.45625 64.3L244.45625 59.581253L239.25313 59.581253L239.25313 64.3L237.925 64.3ZM246.08125 64.3L246.08125 63.300003L250.69063 58.003128Q249.90938 58.034378 249.3 58.034378L246.34688 58.034378L246.34688 57.034378L252.28438 57.034378L252.28438 57.846878L248.34688 62.456253L247.59688 63.300003Q248.425 63.237503 249.14375 63.237503L252.50313 63.237503L252.50313 64.3L246.08125 64.3Z" fill-rule="nonzero"/><path fill="#757575" d="M24.9875 38.8L24.9875 26.175L20.26875 26.175L20.26875 24.4875L31.6125 24.4875L31.6125 26.175L26.878124 26.175L26.878124 38.8L24.9875 38.8ZM33.1125 38.8L33.1125 24.4875L34.878124 24.4875L34.878124 29.6125Q36.1125 28.190624 37.9875 28.190624Q39.128124 28.190624 39.971874 28.64375Q40.83125 29.096874 41.190624 29.909374Q41.565624 30.70625 41.565624 32.221874L41.565624 38.8L39.815624 38.8L39.815624 32.221874Q39.815624 30.909374 39.2375 30.315624Q38.659374 29.70625 37.628124 29.70625Q36.846874 29.70625 36.14375 30.1125Q35.45625 30.51875 35.159374 31.221874Q34.878124 31.909374 34.878124 33.128124L34.878124 38.8L33.1125 38.8ZM43.096874 38.8L43.096874 28.425L44.675 28.425L44.675 30.003124Q45.284374 28.89375 45.8 28.55Q46.315624 28.190624 46.925 28.190624Q47.815624 28.190624 48.7375 28.753124L48.128124 30.39375Q47.4875 30.003124 46.846874 30.003124Q46.26875 30.003124 45.8 30.3625Q45.346874 30.70625 45.14375 31.315624Q44.8625 32.253124 44.8625 33.3625L44.8625 38.8L43.096874 38.8ZM57.221874 35.45625L59.034374 35.690624Q58.6125 37.26875 57.440624 38.159374Q56.284374 39.034374 54.471874 39.034374Q52.20625 39.034374 50.8625 37.64375Q49.534374 36.2375 49.534374 33.70625Q49.534374 31.08125 50.878124 29.64375Q52.221874 28.190624 54.378124 28.190624Q56.45625 28.190624 57.76875 29.6125Q59.096874 31.01875 59.096874 33.596874Q59.096874 33.753124 59.08125 34.065624L51.346874 34.065624Q51.440624 35.76875 52.315624 36.675Q53.190624 37.58125 54.4875 37.58125Q55.45625 37.58125 56.128124 37.08125Q56.815624 36.565624 57.221874 35.45625ZM51.440624 32.6125L57.2375 32.6125Q57.128124 31.315624 56.58125 30.659374Q55.7375 29.64375 54.39375 29.64375Q53.190624 29.64375 52.3625 30.45625Q51.534374 31.253124 51.440624 32.6125ZM67.89375 37.51875Q66.90938 38.346874 66.00313 38.690624Q65.09688 39.034374 64.06563 39.034374Q62.3625 39.034374 61.440624 38.20625Q60.51875 37.3625 60.51875 36.065624Q60.51875 35.3 60.8625 34.675Q61.221874 34.05 61.784374 33.675Q62.346874 33.284374 63.05 33.08125Q63.565624 32.95625 64.6125 32.815624Q66.7375 32.565624 67.7375 32.221874Q67.75313 31.8625 67.75313 31.753124Q67.75313 30.690624 67.25313 30.2375Q66.58125 29.64375 65.25313 29.64375Q64.00313 29.64375 63.409374 30.08125Q62.83125 30.51875 62.55 31.628124L60.83125 31.39375Q61.065624 30.284374 61.596874 29.6125Q62.128124 28.925 63.14375 28.565624Q64.15938 28.190624 65.50313 28.190624Q66.83125 28.190624 67.65938 28.503124Q68.4875 28.815624 68.87813 29.3Q69.26875 29.76875 69.425 30.4875Q69.51875 30.940624 69.51875 32.1125L69.51875 34.45625Q69.51875 36.909374 69.62813 37.565624Q69.7375 38.20625 70.08125 38.8L68.2375 38.8Q67.97188 38.253124 67.89375 37.51875ZM67.7375 33.596874Q66.78438 33.9875 64.8625 34.253124Q63.784374 34.409374 63.33125 34.6125Q62.89375 34.8 62.64375 35.175Q62.39375 35.55 62.39375 36.01875Q62.39375 36.721874 62.925 37.190624Q63.45625 37.659374 64.4875 37.659374Q65.50313 37.659374 66.28438 37.221874Q67.08125 36.76875 67.45625 36.003124Q67.7375 35.39375 67.7375 34.2375L67.7375 33.596874ZM78.84688 38.8L78.84688 37.4875Q77.8625 39.034374 75.94063 39.034374Q74.70625 39.034374 73.65938 38.346874Q72.62813 37.659374 72.05 36.440624Q71.4875 35.221874 71.4875 33.628124Q71.4875 32.065624 72.00313 30.8Q72.51875 29.534374 73.55 28.8625Q74.59688 28.190624 75.8625 28.190624Q76.8 28.190624 77.53438 28.596874Q78.26875 28.9875 78.7375 29.6125L78.7375 24.4875L80.47188 24.4875L80.47188 38.8L78.84688 38.8ZM73.28438 33.628124Q73.28438 35.6125 74.12813 36.596874Q74.97188 37.58125 76.1125 37.58125Q77.26875 37.58125 78.06563 36.64375Q78.87813 35.70625 78.87813 33.76875Q78.87813 31.64375 78.05 30.64375Q77.2375 29.64375 76.03438 29.64375Q74.8625 29.64375 74.06563 30.6125Q73.28438 31.565624 73.28438 33.628124ZM83.28438 38.8L83.28438 24.4875L86.14375 24.4875L89.51875 34.6125Q89.9875 36.034374 90.20625 36.7375Q90.45625 35.95625 90.97188 34.440624L94.39375 24.4875L96.94063 24.4875L96.94063 38.8L95.12813 38.8L95.12813 26.815624L90.95625 38.8L89.25313 38.8L85.1125 26.6125L85.1125 38.8L83.28438 38.8ZM99.47188 33.6125Q99.47188 30.7375 101.06563 29.346874Q102.40938 28.190624 104.33125 28.190624Q106.47188 28.190624 107.81563 29.596874Q109.175 31.003124 109.175 33.471874Q109.175 35.471874 108.58125 36.628124Q107.9875 37.76875 106.83125 38.409374Q105.69063 39.034374 104.33125 39.034374Q102.14375 39.034374 100.8 37.64375Q99.47188 36.2375 99.47188 33.6125ZM101.26875 33.6125Q101.26875 35.6125 102.12813 36.596874Q103.00313 37.58125 104.33125 37.58125Q105.64375 37.58125 106.50313 36.596874Q107.37813 35.596874 107.37813 33.55Q107.37813 31.628124 106.50313 30.64375Q105.62813 29.64375 104.33125 29.64375Q103.00313 29.64375 102.12813 30.64375Q101.26875 31.628124 101.26875 33.6125ZM111.1125 38.8L111.1125 28.425L112.70625 28.425L112.70625 29.909374Q113.84688 28.190624 116.00313 28.190624Q116.94063 28.190624 117.72188 28.534374Q118.51875 28.8625 118.90938 29.409374Q119.3 29.95625 119.45625 30.70625Q119.55 31.20625 119.55 32.425L119.55 38.8L117.78438 38.8L117.78438 32.4875Q117.78438 31.409374 117.58125 30.878124Q117.37813 30.346874 116.84688 30.034374Q116.33125 29.721874 115.62813 29.721874Q114.50313 29.721874 113.69063 30.440624Q112.87813 31.14375 112.87813 33.128124L112.87813 38.8L111.1125 38.8ZM121.12813 26.503124L121.12813 24.4875L122.89375 24.4875L122.89375 26.503124L121.12813 26.503124ZM121.12813 38.8L121.12813 28.425L122.89375 28.425L122.89375 38.8L121.12813 38.8ZM128.95625 37.221874L129.20625 38.784374Q128.47188 38.940624 127.87813 38.940624Q126.925 38.940624 126.39375 38.64375Q125.87813 38.33125 125.65938 37.846874Q125.44063 37.346874 125.44063 35.76875L125.44063 29.8L124.15938 29.8L124.15938 28.425L125.44063 28.425L125.44063 25.8625L127.19063 24.8L127.19063 28.425L128.95625 28.425L128.95625 29.8L127.19063 29.8L127.19063 35.8625Q127.19063 36.6125 127.28438 36.83125Q127.37813 37.034374 127.58125 37.175Q127.8 37.3 128.19063 37.3Q128.47188 37.3 128.95625 37.221874ZM130.47188 33.6125Q130.47188 30.7375 132.06563 29.346874Q133.40938 28.190624 135.33125 28.190624Q137.47188 28.190624 138.81563 29.596874Q140.175 31.003124 140.175 33.471874Q140.175 35.471874 139.58125 36.628124Q138.9875 37.76875 137.83125 38.409374Q136.69063 39.034374 135.33125 39.034374Q133.14375 39.034374 131.8 37.64375Q130.47188 36.2375 130.47188 33.6125ZM132.26875 33.6125Q132.26875 35.6125 133.12813 36.596874Q134.00313 37.58125 135.33125 37.58125Q136.64375 37.58125 137.50313 36.596874Q138.37813 35.596874 138.37813 33.55Q138.37813 31.628124 137.50313 30.64375Q136.62813 29.64375 135.33125 29.64375Q134.00313 29.64375 133.12813 30.64375Q132.26875 31.628124 132.26875 33.6125ZM142.09688 38.8L142.09688 28.425L143.675 28.425L143.675 30.003124Q144.28438 28.89375 144.8 28.55Q145.31563 28.190624 145.925 28.190624Q146.81563 28.190624 147.7375 28.753124L147.12813 30.39375Q146.4875 30.003124 145.84688 30.003124Q145.26875 30.003124 144.8 30.3625Q144.34688 30.70625 144.14375 31.315624Q143.8625 32.253124 143.8625 33.3625L143.8625 38.8L142.09688 38.8ZM155.09688 38.8L155.09688 28.425L156.675 28.425L156.675 30.003124Q157.28438 28.89375 157.8 28.55Q158.31563 28.190624 158.925 28.190624Q159.81563 28.190624 160.7375 28.753124L160.12813 30.39375Q159.4875 30.003124 158.84688 30.003124Q158.26875 30.003124 157.8 30.3625Q157.34688 30.70625 157.14375 31.315624Q156.8625 32.253124 156.8625 33.3625L156.8625 38.8L155.09688 38.8ZM169.22188 35.45625L171.03438 35.690624Q170.6125 37.26875 169.44063 38.159374Q168.28438 39.034374 166.47188 39.034374Q164.20625 39.034374 162.8625 37.64375Q161.53438 36.2375 161.53438 33.70625Q161.53438 31.08125 162.87813 29.64375Q164.22188 28.190624 166.37813 28.190624Q168.45625 28.190624 169.76875 29.6125Q171.09688 31.01875 171.09688 33.596874Q171.09688 33.753124 171.08125 34.065624L163.34688 34.065624Q163.44063 35.76875 164.31563 36.675Q165.19063 37.58125 166.4875 37.58125Q167.45625 37.58125 168.12813 37.08125Q168.81563 36.565624 169.22188 35.45625ZM163.44063 32.6125L169.2375 32.6125Q169.12813 31.315624 168.58125 30.659374Q167.7375 29.64375 166.39375 29.64375Q165.19063 29.64375 164.3625 30.45625Q163.53438 31.253124 163.44063 32.6125ZM172.8 39.659374L174.50313 39.909374Q174.6125 40.70625 175.09688 41.065624Q175.75313 41.55 176.89375 41.55Q178.1125 41.55 178.76875 41.065624Q179.44063 40.58125 179.675 39.70625Q179.81563 39.159374 179.8 37.440624Q178.64375 38.8 176.925 38.8Q174.78438 38.8 173.6125 37.253124Q172.44063 35.70625 172.44063 33.55Q172.44063 32.065624 172.97188 30.815624Q173.51875 29.565624 174.53438 28.878124Q175.56563 28.190624 176.94063 28.190624Q178.76875 28.190624 179.97188 29.675L179.97188 28.425L181.58125 28.425L181.58125 37.39375Q181.58125 39.815624 181.08125 40.815624Q180.59688 41.83125 179.51875 42.409374Q178.45625 43.003124 176.89375 43.003124Q175.05 43.003124 173.89375 42.175Q172.75313 41.346874 172.8 39.659374ZM174.25313 33.425Q174.25313 35.471874 175.06563 36.409374Q175.87813 37.346874 177.09688 37.346874Q178.3 37.346874 179.1125 36.409374Q179.94063 35.471874 179.94063 33.4875Q179.94063 31.58125 179.09688 30.6125Q178.25313 29.64375 177.06563 29.64375Q175.89375 29.64375 175.06563 30.596874Q174.25313 31.55 174.25313 33.425ZM184.12813 26.503124L184.12813 24.4875L185.89375 24.4875L185.89375 26.503124L184.12813 26.503124ZM184.12813 38.8L184.12813 28.425L185.89375 28.425L185.89375 38.8L184.12813 38.8ZM187.40938 35.70625L189.15938 35.425Q189.3 36.471874 189.97188 37.034374Q190.64375 37.58125 191.84688 37.58125Q193.05 37.58125 193.62813 37.096874Q194.22188 36.596874 194.22188 35.940624Q194.22188 35.346874 193.70625 35.003124Q193.34688 34.76875 191.90938 34.409374Q189.97188 33.909374 189.22188 33.565624Q188.4875 33.20625 188.09688 32.58125Q187.70625 31.940624 187.70625 31.175Q187.70625 30.4875 188.01875 29.89375Q188.34688 29.3 188.89375 28.909374Q189.3 28.6125 190.00313 28.409374Q190.72188 28.190624 191.53438 28.190624Q192.75313 28.190624 193.675 28.55Q194.59688 28.89375 195.03438 29.503124Q195.47188 30.096874 195.64375 31.096874L193.925 31.33125Q193.8 30.534374 193.2375 30.096874Q192.675 29.64375 191.65938 29.64375Q190.44063 29.64375 189.925 30.05Q189.40938 30.440624 189.40938 30.971874Q189.40938 31.315624 189.62813 31.596874Q189.83125 31.878124 190.3 32.065624Q190.56563 32.159374 191.84688 32.503124Q193.72188 33.003124 194.45625 33.33125Q195.19063 33.64375 195.6125 34.253124Q196.03438 34.846874 196.03438 35.753124Q196.03438 36.628124 195.51875 37.409374Q195.00313 38.190624 194.03438 38.6125Q193.06563 39.034374 191.84688 39.034374Q189.83125 39.034374 188.76875 38.190624Q187.70625 37.346874 187.40938 35.70625ZM201.95625 37.221874L202.20625 38.784374Q201.47188 38.940624 200.87813 38.940624Q199.925 38.940624 199.39375 38.64375Q198.87813 38.33125 198.65938 37.846874Q198.44063 37.346874 198.44063 35.76875L198.44063 29.8L197.15938 29.8L197.15938 28.425L198.44063 28.425L198.44063 25.8625L200.19063 24.8L200.19063 28.425L201.95625 28.425L201.95625 29.8L200.19063 29.8L200.19063 35.8625Q200.19063 36.6125 200.28438 36.83125Q200.37813 37.034374 200.58125 37.175Q200.8 37.3 201.19063 37.3Q201.47188 37.3 201.95625 37.221874ZM204.09688 38.8L204.09688 28.425L205.675 28.425L205.675 30.003124Q206.28438 28.89375 206.8 28.55Q207.31563 28.190624 207.925 28.190624Q208.81563 28.190624 209.7375 28.753124L209.12813 30.39375Q208.4875 30.003124 207.84688 30.003124Q207.26875 30.003124 206.8 30.3625Q206.34688 30.70625 206.14375 31.315624Q205.8625 32.253124 205.8625 33.3625L205.8625 38.8L204.09688 38.8ZM217.89375 37.51875Q216.90938 38.346874 216.00313 38.690624Q215.09688 39.034374 214.06563 39.034374Q212.3625 39.034374 211.44063 38.20625Q210.51875 37.3625 210.51875 36.065624Q210.51875 35.3 210.8625 34.675Q211.22188 34.05 211.78438 33.675Q212.34688 33.284374 213.05 33.08125Q213.56563 32.95625 214.6125 32.815624Q216.7375 32.565624 217.7375 32.221874Q217.75313 31.8625 217.75313 31.753124Q217.75313 30.690624 217.25313 30.2375Q216.58125 29.64375 215.25313 29.64375Q214.00313 29.64375 213.40938 30.08125Q212.83125 30.51875 212.55 31.628124L210.83125 31.39375Q211.06563 30.284374 211.59688 29.6125Q212.12813 28.925 213.14375 28.565624Q214.15938 28.190624 215.50313 28.190624Q216.83125 28.190624 217.65938 28.503124Q218.4875 28.815624 218.87813 29.3Q219.26875 29.76875 219.425 30.4875Q219.51875 30.940624 219.51875 32.1125L219.51875 34.45625Q219.51875 36.909374 219.62813 37.565624Q219.7375 38.20625 220.08125 38.8L218.2375 38.8Q217.97188 38.253124 217.89375 37.51875ZM217.7375 33.596874Q216.78438 33.9875 214.8625 34.253124Q213.78438 34.409374 213.33125 34.6125Q212.89375 34.8 212.64375 35.175Q212.39375 35.55 212.39375 36.01875Q212.39375 36.721874 212.925 37.190624Q213.45625 37.659374 214.4875 37.659374Q215.50313 37.659374 216.28438 37.221874Q217.08125 36.76875 217.45625 36.003124Q217.7375 35.39375 217.7375 34.2375L217.7375 33.596874ZM225.95625 37.221874L226.20625 38.784374Q225.47188 38.940624 224.87813 38.940624Q223.925 38.940624 223.39375 38.64375Q222.87813 38.33125 222.65938 37.846874Q222.44063 37.346874 222.44063 35.76875L222.44063 29.8L221.15938 29.8L221.15938 28.425L222.44063 28.425L222.44063 25.8625L224.19063 24.8L224.19063 28.425L225.95625 28.425L225.95625 29.8L224.19063 29.8L224.19063 35.8625Q224.19063 36.6125 224.28438 36.83125Q224.37813 37.034374 224.58125 37.175Q224.8 37.3 225.19063 37.3Q225.47188 37.3 225.95625 37.221874ZM228.12813 26.503124L228.12813 24.4875L229.89375 24.4875L229.89375 26.503124L228.12813 26.503124ZM228.12813 38.8L228.12813 28.425L229.89375 28.425L229.89375 38.8L228.12813 38.8ZM231.47188 33.6125Q231.47188 30.7375 233.06563 29.346874Q234.40938 28.190624 236.33125 28.190624Q238.47188 28.190624 239.81563 29.596874Q241.175 31.003124 241.175 33.471874Q241.175 35.471874 240.58125 36.628124Q239.9875 37.76875 238.83125 38.409374Q237.69063 39.034374 236.33125 39.034374Q234.14375 39.034374 232.8 37.64375Q231.47188 36.2375 231.47188 33.6125ZM233.26875 33.6125Q233.26875 35.6125 234.12813 36.596874Q235.00313 37.58125 236.33125 37.58125Q237.64375 37.58125 238.50313 36.596874Q239.37813 35.596874 239.37813 33.55Q239.37813 31.628124 238.50313 30.64375Q237.62813 29.64375 236.33125 29.64375Q235.00313 29.64375 234.12813 30.64375Q233.26875 31.628124 233.26875 33.6125ZM243.1125 38.8L243.1125 28.425L244.70625 28.425L244.70625 29.909374Q245.84688 28.190624 248.00313 28.190624Q248.94063 28.190624 249.72188 28.534374Q250.51875 28.8625 250.90938 29.409374Q251.3 29.95625 251.45625 30.70625Q251.55 31.20625 251.55 32.425L251.55 38.8L249.78438 38.8L249.78438 32.4875Q249.78438 31.409374 249.58125 30.878124Q249.37813 30.346874 248.84688 30.034374Q248.33125 29.721874 247.62813 29.721874Q246.50313 29.721874 245.69063 30.440624Q244.87813 31.14375 244.87813 33.128124L244.87813 38.8L243.1125 38.8ZM251.8 39.05L255.95625 24.2375L257.3625 24.2375L253.22188 39.05L251.8 39.05ZM265.84686 38.8L265.84686 37.4875Q264.8625 39.034374 262.9406 39.034374Q261.70624 39.034374 260.65936 38.346874Q259.6281 37.659374 259.05 36.440624Q258.4875 35.221874 258.4875 33.628124Q258.4875 32.065624 259.0031 30.8Q259.51874 29.534374 260.55 28.8625Q261.59686 28.190624 262.8625 28.190624Q263.8 28.190624 264.53436 28.596874Q265.26874 28.9875 265.7375 29.6125L265.7375 24.4875L267.47186 24.4875L267.47186 38.8L265.84686 38.8ZM260.28436 33.628124Q260.28436 35.6125 261.1281 36.596874Q261.97186 37.58125 263.1125 37.58125Q264.26874 37.58125 265.0656 36.64375Q265.8781 35.70625 265.8781 33.76875Q265.8781 31.64375 265.05 30.64375Q264.2375 29.64375 263.03436 29.64375Q261.8625 29.64375 261.0656 30.6125Q260.28436 31.565624 260.28436 33.628124ZM277.22186 35.45625L279.03436 35.690624Q278.6125 37.26875 277.4406 38.159374Q276.28436 39.034374 274.47186 39.034374Q272.20624 39.034374 270.8625 37.64375Q269.53436 36.2375 269.53436 33.70625Q269.53436 31.08125 270.8781 29.64375Q272.22186 28.190624 274.3781 28.190624Q276.45624 28.190624 277.76874 29.6125Q279.09686 31.01875 279.09686 33.596874Q279.09686 33.753124 279.08124 34.065624L271.34686 34.065624Q271.4406 35.76875 272.3156 36.675Q273.1906 37.58125 274.4875 37.58125Q275.45624 37.58125 276.1281 37.08125Q276.8156 36.565624 277.22186 35.45625ZM271.4406 32.6125L277.2375 32.6125Q277.1281 31.315624 276.58124 30.659374Q275.7375 29.64375 274.39374 29.64375Q273.1906 29.64375 272.3625 30.45625Q271.53436 31.253124 271.4406 32.6125ZM281.09686 38.8L281.09686 28.425L282.675 28.425L282.675 30.003124Q283.28436 28.89375 283.8 28.55Q284.3156 28.190624 284.925 28.190624Q285.8156 28.190624 286.7375 28.753124L286.1281 30.39375Q285.4875 30.003124 284.84686 30.003124Q284.26874 30.003124 283.8 30.3625Q283.34686 30.70625 283.14374 31.315624Q282.8625 32.253124 282.8625 33.3625L282.8625 38.8L281.09686 38.8ZM295.22186 35.45625L297.03436 35.690624Q296.6125 37.26875 295.4406 38.159374Q294.28436 39.034374 292.47186 39.034374Q290.20624 39.034374 288.8625 37.64375Q287.53436 36.2375 287.53436 33.70625Q287.53436 31.08125 288.8781 29.64375Q290.22186 28.190624 292.3781 28.190624Q294.45624 28.190624 295.76874 29.6125Q297.09686 31.01875 297.09686 33.596874Q297.09686 33.753124 297.08124 34.065624L289.34686 34.065624Q289.4406 35.76875 290.3156 36.675Q291.1906 37.58125 292.4875 37.58125Q293.45624 37.58125 294.1281 37.08125Q294.8156 36.565624 295.22186 35.45625ZM289.4406 32.6125L295.2375 32.6125Q295.1281 31.315624 294.58124 30.659374Q293.7375 29.64375 292.39374 29.64375Q291.1906 29.64375 290.3625 30.45625Q289.53436 31.253124 289.4406 32.6125ZM298.8 39.659374L300.5031 39.909374Q300.6125 40.70625 301.09686 41.065624Q301.7531 41.55 302.89374 41.55Q304.1125 41.55 304.76874 41.065624Q305.4406 40.58125 305.675 39.70625Q305.8156 39.159374 305.8 37.440624Q304.64374 38.8 302.925 38.8Q300.78436 38.8 299.6125 37.253124Q298.4406 35.70625 298.4406 33.55Q298.4406 32.065624 298.97186 30.815624Q299.51874 29.565624 300.53436 28.878124Q301.5656 28.190624 302.9406 28.190624Q304.76874 28.190624 305.97186 29.675L305.97186 28.425L307.58124 28.425L307.58124 37.39375Q307.58124 39.815624 307.08124 40.815624Q306.59686 41.83125 305.51874 42.409374Q304.45624 43.003124 302.89374 43.003124Q301.05 43.003124 299.89374 42.175Q298.7531 41.346874 298.8 39.659374ZM300.2531 33.425Q300.2531 35.471874 301.0656 36.409374Q301.8781 37.346874 303.09686 37.346874Q304.3 37.346874 305.1125 36.409374Q305.9406 35.471874 305.9406 33.4875Q305.9406 31.58125 305.09686 30.6125Q304.2531 29.64375 303.0656 29.64375Q301.89374 29.64375 301.0656 30.596874Q300.2531 31.55 300.2531 33.425ZM310.1281 26.503124L310.1281 24.4875L311.89374 24.4875L311.89374 26.503124L310.1281 26.503124ZM310.1281 38.8L310.1281 28.425L311.89374 28.425L311.89374 38.8L310.1281 38.8ZM313.40936 35.70625L315.15936 35.425Q315.3 36.471874 315.97186 37.034374Q316.64374 37.58125 317.84686 37.58125Q319.05 37.58125 319.6281 37.096874Q320.22186 36.596874 320.22186 35.940624Q320.22186 35.346874 319.70624 35.003124Q319.34686 34.76875 317.90936 34.409374Q315.97186 33.909374 315.22186 33.565624Q314.4875 33.20625 314.09686 32.58125Q313.70624 31.940624 313.70624 31.175Q313.70624 30.4875 314.01874 29.89375Q314.34686 29.3 314.89374 28.909374Q315.3 28.6125 316.0031 28.409374Q316.72186 28.190624 317.53436 28.190624Q318.7531 28.190624 319.675 28.55Q320.59686 28.89375 321.03436 29.503124Q321.47186 30.096874 321.64374 31.096874L319.925 31.33125Q319.8 30.534374 319.2375 30.096874Q318.675 29.64375 317.65936 29.64375Q316.4406 29.64375 315.925 30.05Q315.40936 30.440624 315.40936 30.971874Q315.40936 31.315624 315.6281 31.596874Q315.83124 31.878124 316.3 32.065624Q316.5656 32.159374 317.84686 32.503124Q319.72186 33.003124 320.45624 33.33125Q321.1906 33.64375 321.6125 34.253124Q322.03436 34.846874 322.03436 35.753124Q322.03436 36.628124 321.51874 37.409374Q321.0031 38.190624 320.03436 38.6125Q319.0656 39.034374 317.84686 39.034374Q315.83124 39.034374 314.76874 38.190624Q313.70624 37.346874 313.40936 35.70625ZM327.95624 37.221874L328.20624 38.784374Q327.47186 38.940624 326.8781 38.940624Q325.925 38.940624 325.39374 38.64375Q324.8781 38.33125 324.65936 37.846874Q324.4406 37.346874 324.4406 35.76875L324.4406 29.8L323.15936 29.8L323.15936 28.425L324.4406 28.425L324.4406 25.8625L326.1906 24.8L326.1906 28.425L327.95624 28.425L327.95624 29.8L326.1906 29.8L326.1906 35.8625Q326.1906 36.6125 326.28436 36.83125Q326.3781 37.034374 326.58124 37.175Q326.8 37.3 327.1906 37.3Q327.47186 37.3 327.95624 37.221874ZM330.09686 38.8L330.09686 28.425L331.675 28.425L331.675 30.003124Q332.28436 28.89375 332.8 28.55Q333.3156 28.190624 333.925 28.190624Q334.8156 28.190624 335.7375 28.753124L335.1281 30.39375Q334.4875 30.003124 333.84686 30.003124Q333.26874 30.003124 332.8 30.3625Q332.34686 30.70625 332.14374 31.315624Q331.8625 32.253124 331.8625 33.3625L331.8625 38.8L330.09686 38.8ZM343.89374 37.51875Q342.90936 38.346874 342.0031 38.690624Q341.09686 39.034374 340.0656 39.034374Q338.3625 39.034374 337.4406 38.20625Q336.51874 37.3625 336.51874 36.065624Q336.51874 35.3 336.8625 34.675Q337.22186 34.05 337.78436 33.675Q338.34686 33.284374 339.05 33.08125Q339.5656 32.95625 340.6125 32.815624Q342.7375 32.565624 343.7375 32.221874Q343.7531 31.8625 343.7531 31.753124Q343.7531 30.690624 343.2531 30.2375Q342.58124 29.64375 341.2531 29.64375Q340.0031 29.64375 339.40936 30.08125Q338.83124 30.51875 338.55 31.628124L336.83124 31.39375Q337.0656 30.284374 337.59686 29.6125Q338.1281 28.925 339.14374 28.565624Q340.15936 28.190624 341.5031 28.190624Q342.83124 28.190624 343.65936 28.503124Q344.4875 28.815624 344.8781 29.3Q345.26874 29.76875 345.425 30.4875Q345.51874 30.940624 345.51874 32.1125L345.51874 34.45625Q345.51874 36.909374 345.6281 37.565624Q345.7375 38.20625 346.08124 38.8L344.2375 38.8Q343.97186 38.253124 343.89374 37.51875ZM343.7375 33.596874Q342.78436 33.9875 340.8625 34.253124Q339.78436 34.409374 339.33124 34.6125Q338.89374 34.8 338.64374 35.175Q338.39374 35.55 338.39374 36.01875Q338.39374 36.721874 338.925 37.190624Q339.45624 37.659374 340.4875 37.659374Q341.5031 37.659374 342.28436 37.221874Q343.08124 36.76875 343.45624 36.003124Q343.7375 35.39375 343.7375 34.2375L343.7375 33.596874ZM351.95624 37.221874L352.20624 38.784374Q351.47186 38.940624 350.8781 38.940624Q349.925 38.940624 349.39374 38.64375Q348.8781 38.33125 348.65936 37.846874Q348.4406 37.346874 348.4406 35.76875L348.4406 29.8L347.15936 29.8L347.15936 28.425L348.4406 28.425L348.4406 25.8625L350.1906 24.8L350.1906 28.425L351.95624 28.425L351.95624 29.8L350.1906 29.8L350.1906 35.8625Q350.1906 36.6125 350.28436 36.83125Q350.3781 37.034374 350.58124 37.175Q350.8 37.3 351.1906 37.3Q351.47186 37.3 351.95624 37.221874ZM354.1281 26.503124L354.1281 24.4875L355.89374 24.4875L355.89374 26.503124L354.1281 26.503124ZM354.1281 38.8L354.1281 28.425L355.89374 28.425L355.89374 38.8L354.1281 38.8ZM357.47186 33.6125Q357.47186 30.7375 359.0656 29.346874Q360.40936 28.190624 362.33124 28.190624Q364.47186 28.190624 365.8156 29.596874Q367.175 31.003124 367.175 33.471874Q367.175 35.471874 366.58124 36.628124Q365.9875 37.76875 364.83124 38.409374Q363.6906 39.034374 362.33124 39.034374Q360.14374 39.034374 358.8 37.64375Q357.47186 36.2375 357.47186 33.6125ZM359.26874 33.6125Q359.26874 35.6125 360.1281 36.596874Q361.0031 37.58125 362.33124 37.58125Q363.64374 37.58125 364.5031 36.596874Q365.3781 35.596874 365.3781 33.55Q365.3781 31.628124 364.5031 30.64375Q363.6281 29.64375 362.33124 29.64375Q361.0031 29.64375 360.1281 30.64375Q359.26874 31.628124 359.26874 33.6125ZM369.1125 38.8L369.1125 28.425L370.70624 28.425L370.70624 29.909374Q371.84686 28.190624 374.0031 28.190624Q374.9406 28.190624 375.72186 28.534374Q376.51874 28.8625 376.90936 29.409374Q377.3 29.95625 377.45624 30.70625Q377.55 31.20625 377.55 32.425L377.55 38.8L375.78436 38.8L375.78436 32.4875Q375.78436 31.409374 375.58124 30.878124Q375.3781 30.346874 374.84686 30.034374Q374.33124 29.721874 373.6281 29.721874Q372.5031 29.721874 371.6906 30.440624Q370.8781 31.14375 370.8781 33.128124L370.8781 38.8L369.1125 38.8ZM385.1125 42.76875L385.1125 28.425L386.72186 28.425L386.72186 29.76875Q387.28436 28.9875 387.9875 28.596874Q388.70624 28.190624 389.72186 28.190624Q391.05 28.190624 392.0656 28.878124Q393.08124 29.565624 393.59686 30.815624Q394.1281 32.05 394.1281 33.534374Q394.1281 35.128124 393.55 36.409374Q392.9875 37.675 391.89374 38.3625Q390.8 39.034374 389.59686 39.034374Q388.72186 39.034374 388.01874 38.659374Q387.33124 38.284374 386.8781 37.721874L386.8781 42.76875L385.1125 42.76875ZM386.70624 33.675Q386.70624 35.675 387.51874 36.628124Q388.33124 37.58125 389.4875 37.58125Q390.65936 37.58125 391.4875 36.596874Q392.33124 35.6125 392.33124 33.51875Q392.33124 31.55 391.5031 30.565624Q390.6906 29.565624 389.5656 29.565624Q388.4406 29.565624 387.5656 30.628124Q386.70624 31.675 386.70624 33.675ZM402.89374 37.51875Q401.90936 38.346874 401.0031 38.690624Q400.09686 39.034374 399.0656 39.034374Q397.3625 39.034374 396.4406 38.20625Q395.51874 37.3625 395.51874 36.065624Q395.51874 35.3 395.8625 34.675Q396.22186 34.05 396.78436 33.675Q397.34686 33.284374 398.05 33.08125Q398.5656 32.95625 399.6125 32.815624Q401.7375 32.565624 402.7375 32.221874Q402.7531 31.8625 402.7531 31.753124Q402.7531 30.690624 402.2531 30.2375Q401.58124 29.64375 400.2531 29.64375Q399.0031 29.64375 398.40936 30.08125Q397.83124 30.51875 397.55 31.628124L395.83124 31.39375Q396.0656 30.284374 396.59686 29.6125Q397.1281 28.925 398.14374 28.565624Q399.15936 28.190624 400.5031 28.190624Q401.83124 28.190624 402.65936 28.503124Q403.4875 28.815624 403.8781 29.3Q404.26874 29.76875 404.425 30.4875Q404.51874 30.940624 404.51874 32.1125L404.51874 34.45625Q404.51874 36.909374 404.6281 37.565624Q404.7375 38.20625 405.08124 38.8L403.2375 38.8Q402.97186 38.253124 402.89374 37.51875ZM402.7375 33.596874Q401.78436 33.9875 399.8625 34.253124Q398.78436 34.409374 398.33124 34.6125Q397.89374 34.8 397.64374 35.175Q397.39374 35.55 397.39374 36.01875Q397.39374 36.721874 397.925 37.190624Q398.45624 37.659374 399.4875 37.659374Q400.5031 37.659374 401.28436 37.221874Q402.08124 36.76875 402.45624 36.003124Q402.7375 35.39375 402.7375 34.2375L402.7375 33.596874ZM407.1281 26.503124L407.1281 24.4875L408.89374 24.4875L408.89374 26.503124L407.1281 26.503124ZM407.1281 38.8L407.1281 28.425L408.89374 28.425L408.89374 38.8L407.1281 38.8ZM411.09686 38.8L411.09686 28.425L412.675 28.425L412.675 30.003124Q413.28436 28.89375 413.8 28.55Q414.3156 28.190624 414.925 28.190624Q415.8156 28.190624 416.7375 28.753124L416.1281 30.39375Q415.4875 30.003124 414.84686 30.003124Q414.26874 30.003124 413.8 30.3625Q413.34686 30.70625 413.14374 31.315624Q412.8625 32.253124 412.8625 33.3625L412.8625 38.8L411.09686 38.8ZM424.08124 38.8L424.08124 24.4875L425.83124 24.4875L425.83124 38.8L424.08124 38.8ZM434.89374 37.51875Q433.90936 38.346874 433.0031 38.690624Q432.09686 39.034374 431.0656 39.034374Q429.3625 39.034374 428.4406 38.20625Q427.51874 37.3625 427.51874 36.065624Q427.51874 35.3 427.8625 34.675Q428.22186 34.05 428.78436 33.675Q429.34686 33.284374 430.05 33.08125Q430.5656 32.95625 431.6125 32.815624Q433.7375 32.565624 434.7375 32.221874Q434.7531 31.8625 434.7531 31.753124Q434.7531 30.690624 434.2531 30.2375Q433.58124 29.64375 432.2531 29.64375Q431.0031 29.64375 430.40936 30.08125Q429.83124 30.51875 429.55 31.628124L427.83124 31.39375Q428.0656 30.284374 428.59686 29.6125Q429.1281 28.925 430.14374 28.565624Q431.15936 28.190624 432.5031 28.190624Q433.83124 28.190624 434.65936 28.503124Q435.4875 28.815624 435.8781 29.3Q436.26874 29.76875 436.425 30.4875Q436.51874 30.940624 436.51874 32.1125L436.51874 34.45625Q436.51874 36.909374 436.6281 37.565624Q436.7375 38.20625 437.08124 38.8L435.2375 38.8Q434.97186 38.253124 434.89374 37.51875ZM434.7375 33.596874Q433.78436 33.9875 431.8625 34.253124Q430.78436 34.409374 430.33124 34.6125Q429.89374 34.8 429.64374 35.175Q429.39374 35.55 429.39374 36.01875Q429.39374 36.721874 429.925 37.190624Q430.45624 37.659374 431.4875 37.659374Q432.5031 37.659374 433.28436 37.221874Q434.08124 36.76875 434.45624 36.003124Q434.7375 35.39375 434.7375 34.2375L434.7375 33.596874ZM442.95624 37.221874L443.20624 38.784374Q442.47186 38.940624 441.8781 38.940624Q440.925 38.940624 440.39374 38.64375Q439.8781 38.33125 439.65936 37.846874Q439.4406 37.346874 439.4406 35.76875L439.4406 29.8L438.15936 29.8L438.15936 28.425L439.4406 28.425L439.4406 25.8625L441.1906 24.8L441.1906 28.425L442.95624 28.425L442.95624 29.8L441.1906 29.8L441.1906 35.8625Q441.1906 36.6125 441.28436 36.83125Q441.3781 37.034374 441.58124 37.175Q441.8 37.3 442.1906 37.3Q442.47186 37.3 442.95624 37.221874ZM452.22186 35.45625L454.03436 35.690624Q453.6125 37.26875 452.4406 38.159374Q451.28436 39.034374 449.47186 39.034374Q447.20624 39.034374 445.8625 37.64375Q444.53436 36.2375 444.53436 33.70625Q444.53436 31.08125 445.8781 29.64375Q447.22186 28.190624 449.3781 28.190624Q451.45624 28.190624 452.76874 29.6125Q454.09686 31.01875 454.09686 33.596874Q454.09686 33.753124 454.08124 34.065624L446.34686 34.065624Q446.4406 35.76875 447.3156 36.675Q448.1906 37.58125 449.4875 37.58125Q450.45624 37.58125 451.1281 37.08125Q451.8156 36.565624 452.22186 35.45625ZM446.4406 32.6125L452.2375 32.6125Q452.1281 31.315624 451.58124 30.659374Q450.7375 29.64375 449.39374 29.64375Q448.1906 29.64375 447.3625 30.45625Q446.53436 31.253124 446.4406 32.6125ZM456.1125 38.8L456.1125 28.425L457.70624 28.425L457.70624 29.909374Q458.84686 28.190624 461.0031 28.190624Q461.9406 28.190624 462.72186 28.534374Q463.51874 28.8625 463.90936 29.409374Q464.3 29.95625 464.45624 30.70625Q464.55 31.20625 464.55 32.425L464.55 38.8L462.78436 38.8L462.78436 32.4875Q462.78436 31.409374 462.58124 30.878124Q462.3781 30.346874 461.84686 30.034374Q461.33124 29.721874 460.6281 29.721874Q459.5031 29.721874 458.6906 30.440624Q457.8781 31.14375 457.8781 33.128124L457.8781 38.8L456.1125 38.8ZM472.89374 35.003124L474.6125 35.221874Q474.33124 37.01875 473.15936 38.034374Q472.0031 39.034374 470.3 39.034374Q468.175 39.034374 466.8781 37.64375Q465.58124 36.253124 465.58124 33.659374Q465.58124 31.971874 466.1281 30.721874Q466.6906 29.45625 467.83124 28.83125Q468.97186 28.190624 470.3156 28.190624Q472.0031 28.190624 473.0656 29.05Q474.14374 29.909374 474.45624 31.471874L472.7375 31.7375Q472.5031 30.690624 471.8781 30.175Q471.2531 29.64375 470.3781 29.64375Q469.05 29.64375 468.22186 30.596874Q467.39374 31.55 467.39374 33.596874Q467.39374 35.690624 468.1906 36.64375Q468.9875 37.58125 470.28436 37.58125Q471.3156 37.58125 472.0031 36.95625Q472.70624 36.315624 472.89374 35.003124ZM476.03436 42.8L475.84686 41.14375Q476.425 41.3 476.84686 41.3Q477.4406 41.3 477.78436 41.096874Q478.14374 40.909374 478.3625 40.565624Q478.53436 40.3 478.90936 39.253124Q478.95624 39.096874 479.0656 38.815624L475.1281 28.425L477.01874 28.425L479.175 34.440624Q479.59686 35.58125 479.925 36.83125Q480.2375 35.628124 480.64374 34.471874L482.8625 28.425L484.6281 28.425L480.675 38.971874Q480.05 40.690624 479.6906 41.33125Q479.22186 42.20625 478.6125 42.596874Q478.01874 43.003124 477.175 43.003124Q476.65936 43.003124 476.03436 42.8Z" fill-rule="nonzero"/></svg>